<?xml version="1.0" encoding="UTF-8"?>
<svg width="38px" height="38px" viewBox="0 0 38 38" version="1.1" xmlns="http://www.w3.org/2000/svg" xmlns:xlink="http://www.w3.org/1999/xlink">
    <title>BTCB-BUSD</title>
    <g id="页面-1" stroke="none" stroke-width="1" fill="none" fill-rule="evenodd">
        <g id="BTCB-BUSD">
            <circle id="椭圆形" fill="#FFFFFF" cx="16" cy="19" r="14"></circle>
            <g id="BTCB" transform="translate(0.000000, -0.000000)" fill="#000000" fill-rule="nonzero">
                <path d="M36.76383,1.85365854 L35.5285276,1.85365854 C34.8445942,1.85365854 34.2926829,2.40526514 34.2926829,3.08968401 L34.2926829,4.32574564 C34.2926829,5.00936901 34.8445942,5.56097561 35.5285276,5.56097561 L36.76383,5.56097561 C37.4476549,5.56097561 38,5.00936901 38,4.32574564 L38,3.08968401 C38,2.40526514 37.4476549,1.85365854 36.76383,1.85365854 Z" id="路径"></path>
                <path d="M27.804878,7.01670787 C27.804878,7.74893498 28.3693829,8.34146341 29.0684874,8.34146341 L31.175452,8.34146341 C31.8745195,8.34146341 32.4390244,7.74893498 32.4390244,7.01670787 L32.4390244,5.03125929 C32.4390244,4.29818012 31.8745195,3.70731707 31.175452,3.70731707 L29.0684874,3.70731707 C28.3693829,3.70731707 27.804878,4.29818012 27.804878,5.03125929 L27.804878,7.01670787 Z" id="路径"></path>
                <path d="M34.8827624,7.41463415 L32.7762179,7.41463415 C32.0767604,7.41463415 31.5121951,7.97950428 31.5121951,8.67864015 L31.5121951,10.785588 C31.5121951,11.4846869 32.0767604,12.0487805 32.7762179,12.0487805 L34.8827624,12.0487805 C35.5822199,12.0487805 36.1463415,11.4846869 36.1463415,10.785588 L36.1463415,8.67864015 C36.1463415,7.97954126 35.5822199,7.41463415 34.8827624,7.41463415 Z" id="路径"></path>
                <path d="M31.5798254,19.4021105 C31.5798254,19.4004479 31.5798254,19.3996543 31.5798254,19.398823 C31.5798254,18.2425978 31.452816,17.1159602 31.2179919,16.03036 C31.8158562,15.7019101 32.2239607,15.0728598 32.2239607,14.3403848 L32.2239607,13.6933098 C32.2239607,12.6208597 31.3610283,11.7569972 30.2912154,11.7569972 L29.6179298,11.7569972 C29.2442551,11.0795031 28.8226503,10.4332595 28.3575273,9.82147808 L28.3575273,8.31133409 C28.3575273,7.23971531 27.4938031,6.37502146 26.4239147,6.37502146 L24.7550307,6.37502146 C24.1912191,5.98497777 23.6003689,5.63185257 22.986553,5.31572144 L22.986553,3.79159604 C22.986553,2.71914592 22.1231304,1.85365854 21.0533175,1.85365854 L18.475645,1.85365854 C17.4725422,1.85365854 16.6603683,2.6173461 16.5616796,3.59615852 C16.3060015,3.58387755 16.0486642,3.57647118 15.7900824,3.57647118 C7.06817903,3.57647118 0,10.6582469 0,19.398823 C0,28.1377365 7.06817903,35.2195122 15.7901201,35.2195122 C23.3406181,35.2195122 29.6482868,29.9106555 31.2069426,22.8149362 C31.9276305,22.5340609 32.4390244,21.836086 32.4390244,21.0132608 C32.4390244,20.3398856 32.0981203,19.7486607 31.5798254,19.4021105 Z M20.3965868,27.7796989 C20.0622444,27.8240616 19.8356035,28.0851739 19.8351132,28.425149 L19.8351132,30.3696616 C19.8351132,30.7474243 19.55613,31.0233494 19.173895,31.0233494 L17.8872837,31.0233494 C17.6540812,31.0233494 17.4155991,30.919887 17.2340602,30.7408493 C17.0525589,30.5609803 16.9481004,30.3253367 16.9481004,30.0953991 L16.9481004,28.8702115 C16.9481004,28.6402739 16.8436043,28.4037613 16.6620653,28.2255549 C16.4813937,28.0473485 16.2417426,27.9439239 16.0089926,27.9439239 L15.7533145,27.9439239 C15.3705893,27.9439239 15.0915306,28.2189799 15.0919455,28.5959112 L15.0919455,30.3696238 C15.0915306,30.7473865 14.8129245,31.0233494 14.4306518,31.0233494 L13.143588,31.0233494 C12.910838,31.0233494 12.671564,30.9198492 12.4904776,30.7408115 C12.3089386,30.5609425 12.2044424,30.3252989 12.204895,30.0953613 L12.2044424,27.9438861 L8.76994669,27.9438861 C8.53719668,27.9438861 8.29788501,27.8404236 8.11721337,27.6613859 C7.93571211,27.4823482 7.83076342,27.2466669 7.83076342,27.0167293 L7.83117824,26.3573355 C7.83117824,25.9812355 8.11023691,25.7053104 8.4929621,25.7053104 L8.77073861,25.7053104 C10.1667485,25.7053104 10.3187977,25.4762041 10.3191748,24.2288729 L10.3187977,14.5883093 C10.3191748,13.3418095 10.1667485,13.1126654 8.7703238,13.1126654 C8.53757378,13.1126654 8.29788501,13.0099965 8.11721337,12.8309966 C7.93571211,12.6519967 7.83076342,12.415484 7.83076342,12.1855842 L7.83076342,12.0278965 C7.83076342,11.3610964 8.3240939,10.8733339 9.00062262,10.8733339 L11.5430734,10.8733339 C11.9257986,10.8733339 12.2044047,10.5990337 12.2048572,10.2213088 L12.2048572,8.98459591 C12.2044047,8.2841648 12.7215306,7.77422103 13.4312447,7.77422103 C13.84263,7.77422103 14.2658941,7.95650845 14.5867361,8.27347091 C14.9063714,8.5888085 15.0915684,9.0059837 15.0915684,9.41325854 L15.0915684,9.94700851 C15.0919832,10.1769461 15.1964416,10.4126274 15.3775658,10.5908338 C15.5590671,10.770665 15.7983787,10.8733339 16.031091,10.8733339 L16.2864297,10.8733339 C16.6691172,10.8733339 16.9481759,10.5990337 16.9481759,10.2213088 L16.9481759,8.92795229 C16.9481759,8.26032082 17.4415441,7.77422103 18.1175448,7.77422103 L18.1745633,7.77422103 C18.5863257,7.77422103 19.009175,7.95650845 19.3300925,8.27347091 C19.6500295,8.5888085 19.834887,9.0059837 19.8352641,9.41325854 L19.834887,10.1900962 C19.8352641,10.6138464 20.1836349,11.0194964 20.6187024,11.1024402 C23.0342192,11.5663965 24.2310415,12.7579531 24.2315318,14.8937843 C24.2310415,16.238872 23.5914692,17.3573097 22.3593498,18.152172 C22.1348207,18.2967096 22.0324363,18.5676846 22.0905484,18.8567598 C22.1495278,19.1457972 22.3605942,19.40861 22.6408973,19.5399597 C24.2839873,20.3102601 25.0944641,21.5288727 25.0944641,23.2623415 C25.0944641,26.0552236 23.5736698,27.3559865 20.3965868,27.7796989 Z" id="形状"></path>
                <path d="M25.0238452,4.63414634 L27.8044876,4.63414634 C28.3144849,4.63414634 28.7317073,4.21862963 28.7317073,3.70767507 L28.7317073,0.926471275 C28.7317073,0.417225318 28.3144849,0 27.8044876,0 L25.0238452,0 C24.5147427,0 24.097561,0.417265999 24.097561,0.926471275 L24.097561,3.70767507 C24.097561,4.21862963 24.5147834,4.63414634 25.0238452,4.63414634 Z" id="路径"></path>
                <path d="M15.8204383,17.6097561 L16.0348808,17.6097561 C18.3917193,17.6097561 19.4634146,16.9048529 19.4634146,15.2319558 C19.4634146,13.6060907 18.44531,12.9756098 16.1417042,12.9756098 L15.5274597,12.9756098 C15.1236792,12.9756098 14.8297059,13.2379798 14.8292683,13.5966482 L14.8292683,16.7247258 C14.8297059,16.9447851 14.9403487,17.1695655 15.1314771,17.3403223 C15.3224861,17.511079 15.5745256,17.6097561 15.8204383,17.6097561 Z" id="路径"></path>
                <path d="M16.0586891,20.3902439 L15.4455414,20.3902439 C15.0891362,20.3902439 14.8292683,20.6640585 14.8292683,21.0402849 L14.8292683,25.0249498 C14.8296546,25.2561023 14.9269294,25.4905365 15.0960191,25.6692195 C15.2646523,25.8479402 15.4874714,25.9512195 15.7041802,25.9512195 L16.0827093,25.9512195 C18.3760081,25.9512195 19.4630635,25.1643278 19.4634146,23.2084713 C19.4630986,21.2017672 18.3992909,20.3902439 16.0586891,20.3902439 Z" id="路径"></path>
            </g>
            <g id="BUSD" transform="translate(18.000000, 18.000000)" fill-rule="nonzero">
                <path d="M0,10 C0,15.5228475 4.4771525,20 10,20 C15.5228475,20 20,15.5228475 20,10 C20,4.4771525 15.5228475,0 10,0 C4.4771525,0 0,4.4771525 0,10 Z" id="路径" fill="#F0B90B"></path>
                <path d="M14.6316667,8.38166666 L16.25,10 L10,16.25 L8.38166666,14.6316667 L14.6316667,8.38166666 Z M12.3833333,6.13333334 L14.0016667,7.75166666 L7.75166666,14.0016667 L6.13333334,12.3833333 L12.3833333,6.13333334 Z M10,3.75 L11.6183333,5.36833334 L7.66166666,9.32583334 L6.04333334,7.70666666 L10,3.75 Z M5.50333334,8.24666666 L7.1225,9.865 L5.36833334,11.6183333 L3.75,10 L5.50333334,8.24666666 Z" id="形状" fill="#FFFFFF"></path>
            </g>
        </g>
    </g>
</svg>