<?xml version="1.0" encoding="UTF-8"?>
<svg width="41px" height="41px" viewBox="0 0 41 41" version="1.1" xmlns="http://www.w3.org/2000/svg" xmlns:xlink="http://www.w3.org/1999/xlink">
    <title>BUSD-BNB</title>
    <g id="页面-1" stroke="none" stroke-width="1" fill="none" fill-rule="evenodd">
        <g id="BUSD-BNB" fill-rule="nonzero">
            <g id="BUSD">
                <path d="M0,19 C0,29.4934102 8.50658975,38 19,38 C29.4934102,38 38,29.4934102 38,19 C38,8.50658975 29.4934102,0 19,0 C8.50658975,0 0,8.50658975 0,19 Z" id="路径" fill="#F0B90B"></path>
                <path d="M27.8001667,15.9251667 L30.875,19 L19,30.875 L15.9251667,27.8001667 L27.8001667,15.9251667 Z M23.5283333,11.6533333 L26.6031667,14.7281667 L14.7281667,26.6031667 L11.6533333,23.5283333 L23.5283333,11.6533333 Z M19,7.125 L22.0748333,10.1998333 L14.5571667,17.7190833 L11.4823333,14.6426667 L19,7.125 Z M10.4563333,15.6686667 L13.53275,18.7435 L10.1998333,22.0748333 L7.125,19 L10.4563333,15.6686667 Z" id="形状" fill="#FFFFFF"></path>
            </g>
            <g id="BNB" transform="translate(21.000000, 21.000000)">
                <path d="M12.4151548,0.308078432 C7.05004968,-1.06103369 1.62244607,2.2709282 0.31193077,7.56964605 C-1.05912995,12.9269564 2.22008793,18.3428593 7.58714612,19.7119714 C12.9542043,21.0205379 18.3193094,17.7471686 19.6923232,12.3918113 C21.0614309,7.09309347 17.7236207,1.67719057 12.4151548,0.308078432 Z" id="路径" fill="#F0B90A"></path>
                <path d="M10.2198952,4.49939744 L13.8389486,8.25713172 L12.5538233,9.65163394 L10.1613029,7.16535758 L7.76878237,9.65163394 L6.54224942,8.37822295 L10.2198952,4.49939744 Z M11.6788444,10.5598182 L10.1613029,12.1359572 L8.64376128,10.5598182 L10.1613029,8.98367909 L11.6788444,10.5598182 Z M4.49932988,10.4992726 L5.6672705,9.28640717 L6.89380345,10.5598182 L5.72586283,11.7726836 L4.49932988,10.4992726 Z M10.2198952,16.4991477 L6.60084176,12.7414134 L7.76878237,11.528548 L9.98747892,13.8312344 L10.1632559,14.0128713 L12.5557764,11.528548 L13.8409017,12.8625046 L10.2198952,16.4991477 Z M14.6572883,11.8937748 L13.372163,10.5598182 L14.7139276,9.16531594 L15.9990528,10.4992726 L14.6572883,11.8937748 Z" id="形状" fill="#FFFFFF"></path>
            </g>
        </g>
    </g>
</svg>