<?xml version="1.0" encoding="UTF-8"?>
<svg width="41px" height="41px" viewBox="0 0 41 41" version="1.1" xmlns="http://www.w3.org/2000/svg" xmlns:xlink="http://www.w3.org/1999/xlink">
    <title>DAI-BUSD</title>
    <g id="页面-1" stroke="none" stroke-width="1" fill="none" fill-rule="evenodd">
        <g id="DAI-BUSD">
            <circle id="椭圆形" fill="#FFFFFF" cx="19" cy="19" r="16"></circle>
            <g id="DAI" fill="#F5AC37" fill-rule="nonzero">
                <path d="M19,38 C8.5082,38 0,29.4918 0,19 C0,8.5082 8.5082,0 19,0 C29.4918,0 38,8.5082 38,19 C38,29.4918 29.4918,38 19,38 Z M31.768,20.254 L29.431,20.254 C29.4842,19.7676 29.5108,19.2698 29.5108,18.7606 C29.5108,18.373 29.4956,18.0006 29.469,17.632 L31.768,17.632 L31.768,15.238 L29.0662,15.238 C27.835,10.8148 24.1148,8.3638 18.4148,8.3638 L13.0568,8.3638 C11.5368,8.3638 10.678,8.3372 9.5684,8.2802 C9.7584,9.443 9.823,10.2486 9.823,11.4418 L9.823,15.238 L6.726,15.238 L6.726,17.632 L9.823,17.632 L9.823,20.254 L6.726,20.254 L6.726,22.648 L9.823,22.648 L9.823,26.2162 C9.823,27.6032 9.7584,28.4354 9.5684,29.5146 C10.678,29.4576 11.533,29.431 13.0568,29.431 L18.4148,29.431 C21.584,29.431 24.2174,28.5988 26.1174,26.9648 C27.4208,25.859 28.3746,24.3884 28.9332,22.648 L31.768,22.648 L31.768,20.254 L31.768,20.254 Z M12.2968,20.254 L12.2968,17.632 L26.8964,17.632 C26.9268,17.9968 26.942,18.373 26.942,18.7606 C26.942,19.2774 26.9116,19.7752 26.8508,20.254 L12.2968,20.254 Z M12.2968,10.3056 L18.4794,10.3056 C21.0786,10.3056 23.0432,10.9136 24.4378,12.1904 C25.3498,12.9884 26.011,14.0106 26.4252,15.238 L12.2968,15.238 L12.2968,10.3056 Z M24.2782,25.5246 C22.8532,26.8546 20.8544,27.493 18.3502,27.493 L12.2968,27.493 L12.2968,22.648 L26.258,22.648 C25.8096,23.7804 25.1484,24.7532 24.2782,25.5246 L24.2782,25.5246 Z" id="形状"></path>
            </g>
            <g id="BUSD" transform="translate(21.000000, 21.000000)" fill-rule="nonzero">
                <path d="M0,10 C0,15.5228475 4.4771525,20 10,20 C15.5228475,20 20,15.5228475 20,10 C20,4.4771525 15.5228475,0 10,0 C4.4771525,0 0,4.4771525 0,10 Z" id="路径" fill="#F0B90B"></path>
                <path d="M14.6316667,8.38166666 L16.25,10 L10,16.25 L8.38166666,14.6316667 L14.6316667,8.38166666 Z M12.3833333,6.13333334 L14.0016667,7.75166666 L7.75166666,14.0016667 L6.13333334,12.3833333 L12.3833333,6.13333334 Z M10,3.75 L11.6183333,5.36833334 L7.66166666,9.32583334 L6.04333334,7.70666666 L10,3.75 Z M5.50333334,8.24666666 L7.1225,9.865 L5.36833334,11.6183333 L3.75,10 L5.50333334,8.24666666 Z" id="形状" fill="#FFFFFF"></path>
            </g>
        </g>
    </g>
</svg>