<?xml version="1.0" encoding="UTF-8"?>
<svg width="41px" height="41px" viewBox="0 0 41 41" version="1.1" xmlns="http://www.w3.org/2000/svg" xmlns:xlink="http://www.w3.org/1999/xlink">
    <title>FEL-BUSD</title>
    <g id="页面-1" stroke="none" stroke-width="1" fill="none" fill-rule="evenodd">
        <g id="FEL-BUSD">
            <g id="felicat备份">
                <circle id="蒙版" fill="#B84949" cx="19" cy="19.0646259" r="18.1598639"></circle>
                <path d="M29.5986395,33.7740214 C29.5986395,27.9205544 24.8534669,23.1753819 19,23.1753819 C13.1465331,23.1753819 8.40136054,27.9205544 8.40136054,33.7740214 L14.2902799,36.881965 L24.0387392,36.881965 L29.5986395,33.7740214 Z" id="路径" fill="#FFFFFF"></path>
                <path d="M29.5986395,33.7740214 C29.5986395,27.9205544 24.8534669,23.1753819 19,23.1753819 C13.1465331,23.1753819 8.40136054,27.9205544 8.40136054,33.7740214" id="路径备份" stroke="#291818" stroke-width="1.21708185"></path>
                <circle id="蒙版" stroke="#291818" stroke-width="1.21708185" cx="19" cy="19" r="18.3914591"></circle>
                <path d="M12.3574219,25.9023438 C12.3574219,27.2755049 15.3314054,28.3886719 19,28.3886719 C22.6685946,28.3886719 25.6425781,27.2755049 25.6425781,25.9023438" id="路径" stroke="#B84949" stroke-width="1.89323843" stroke-linecap="round"></path>
                <g id="编组-10" transform="translate(9.388672, 8.238281)">
                    <path d="M17.9601262,0.466757174 C18.2698918,0.776184701 18.4394961,1.20993306 18.4379729,1.68797263 L18.4321354,1.77777686 L17.9612582,5.52161223 C18.717845,6.81538083 19.1484375,8.30287931 19.1484375,9.8853411 C19.1484375,14.8782383 14.8619138,18.9257812 9.57421875,18.9257812 C4.28652374,18.9257812 0,14.8782383 0,9.8853411 C0,8.30205683 0.431040199,6.8138346 1.18835932,5.51959508 L0.710464548,1.68797263 C0.708941345,1.2096276 0.878852389,0.776490157 1.18831131,0.466757174 C1.6176894,0.0375906632 2.28353214,-0.105057565 2.93618683,0.0986819814 L6.38733517,1.35781099 C7.38426145,1.02562743 8.4568885,0.844900949 9.57421875,0.844900949 C10.6915658,0.844900949 11.7642083,1.02563286 12.7611473,1.35782597 L16.1794339,0.109678419 C16.9388197,-0.129799549 17.529828,0.0378961198 17.9601262,0.466757174 Z" id="形状结合" stroke="#291818" stroke-width="1.21708185" fill="#FFFFFF" fill-rule="nonzero" stroke-linejoin="round"></path>
                    <path d="M7.35735218,9.3282826 C7.10096086,8.76136165 6.29718601,8.34762137 5.34532354,8.34762137 C4.39268774,8.34762137 3.58838027,8.76203421 3.33267108,9.32966468" id="路径" stroke="#291818" stroke-width="1.01423488" stroke-linecap="round" stroke-linejoin="round"></path>
                    <path d="M15.8151426,9.3282826 C15.5587513,8.76136165 14.7549764,8.34762137 13.803114,8.34762137 C12.8504782,8.34762137 12.0461707,8.76203421 11.7904615,9.32966468" id="路径备份-4" stroke="#291818" stroke-width="1.01423488" stroke-linecap="round" stroke-linejoin="round"></path>
                    <path d="M15.828615,2.5050307 C15.9993955,2.54716329 16.0717394,2.59266822 16.0850029,2.65772207 L16.0850029,2.65772207 L16.0328474,3.08250224 C15.8611908,2.92093792 15.6796377,2.77001103 15.4892183,2.63074729 L15.4892183,2.63074729 Z" id="路径" stroke="#B84949" stroke-width="1.386121" fill-rule="nonzero"></path>
                    <path d="M3.019,2.552 L3.49734164,2.69750959 C3.34107673,2.81682285 3.19109292,2.94412316 3.04798698,3.07881625 L3.04798698,3.07881625 L2.99464661,2.64479345 C2.99816594,2.59768018 3.01100156,2.55274653 3.04266272,2.52061969 L3.019,2.552 Z" id="路径" stroke="#B84949" stroke-width="1.386121" fill-rule="nonzero"></path>
                    <path d="M9.57687968,12.194326 L10.1860433,12.7881724 L9.23900604,13.0463247 L9.44271054,12.2513575 C9.48230541,12.2206663 9.52869773,12.2014103 9.57687968,12.194326 L9.57687968,12.194326 Z" id="三角形" stroke="#291818" stroke-width="1.0480427" transform="translate(9.618683, 12.453840) scale(1, -1) translate(-9.618683, -12.453840) "></path>
                    <path d="M6.63090769,13.0452706 C6.63090769,13.8665322 7.29736367,14.5322963 8.1194788,14.5322963 C8.94159392,14.5322963 9.60804991,13.8665322 9.60804991,13.0452706" id="路径" stroke="#291818" stroke-width="0.8113879" stroke-linecap="round"></path>
                    <path d="M9.60804991,13.0452706 C9.60804991,13.8665322 10.2745059,14.5322963 11.096621,14.5322963 C11.9187361,14.5322963 12.5851921,13.8665322 12.5851921,13.0452706" id="路径" stroke="#291818" stroke-width="0.8113879" stroke-linecap="round"></path>
                </g>
                <g id="编组" transform="translate(16.673469, 26.884354)" fill-rule="nonzero">
                    <path d="M2.35845808,3.8548685 C3.41686453,3.8548685 4.27487248,2.9919268 4.27487248,1.92743425 C4.27487248,0.862941708 3.41686453,0 2.35845808,0 C1.30005164,0 0.442043691,0.862941708 0.442043691,1.92743425 C0.442043691,2.9919268 1.30005164,3.8548685 2.35845808,3.8548685 Z" id="路径" stroke="#FFDC69" stroke-width="0.678571429" fill="#FFDC69"></path>
                    <path d="M2.64048544,3.43966294 L2.64048544,4.26360947 C2.55274847,4.27233471 2.46366429,4.24456747 2.37355286,4.24456746 C2.31348981,4.24456746 2.22451228,4.2509148 2.10662028,4.26360947 L2.10662028,3.43966294 C2.00419873,3.36029846 1.93823602,3.23662117 1.93823602,3.09768727 C1.93823602,2.85857226 2.13310977,2.66477487 2.37355286,2.66477487 C2.61399596,2.66477487 2.80886971,2.85857225 2.80886971,3.09768727 C2.80886971,3.23662118 2.74289015,3.36028172 2.64048544,3.43966294 Z" id="路径" fill="#FFFFFF"></path>
                    <path d="M4.54815707,2.24559573 L0.234155854,2.24559573 C0.104829854,2.24559573 0,2.13002417 0,1.9874464 L0,1.85748655 C0,1.71490878 0.104829861,1.59933722 0.234155854,1.59933722 L4.54815707,1.59933722 C4.67748307,1.59933722 4.78231293,1.71492379 4.78231293,1.85748655 L4.78231293,1.9874464 C4.78231293,2.13002417 4.67748306,2.24559573 4.54815707,2.24559573 Z" id="路径" fill="#FEB102"></path>
                </g>
                <g id="编组-9" transform="translate(27.349609, 23.230469) rotate(18.000000) translate(-27.349609, -23.230469) translate(23.601562, 17.849609)" fill="#FFFFFF" stroke="#291818" stroke-width="1.21708185">
                    <rect id="矩形" fill-rule="nonzero" stroke-linejoin="round" x="1.45194609" y="0.541470126" width="4.57285095" height="10.2202486" rx="2.28642548"></rect>
                    <path d="M3.74804687,0.608540925 C4.64478489,0.608540925 5.46044734,0.854634492 6.04942012,1.26677607 C6.54533482,1.61379901 6.88755282,2.0824774 6.88755282,2.62274592 C6.88755282,2.89516852 6.79847455,3.15209471 6.64617823,3.38365149 C5.57748498,4.10193116 5.46568207,4.39739209 5.02525722,4.39427134 C4.41492569,3.97207422 4.17628384,3.79090385 3.74804687,3.79090385 C3.29610518,3.79090385 3.07107611,3.98558537 2.83988351,4.25691318 C1.51376175,3.35472842 1.22074451,3.34997665 0.948063201,3.31737795 C0.69728713,3.15114155 0.608540925,2.8946605 0.608540925,2.62274592 C0.608540925,2.0824774 0.950758926,1.61379901 1.44667363,1.26677607 C2.03564641,0.854634492 2.85130886,0.608540925 3.74804687,0.608540925 Z" id="椭圆形"></path>
                </g>
                <path d="M11.3336956,20.3905544 C10.7372978,20.4810306 10.177207,20.5262687 9.6534235,20.5262687" id="路径-6" stroke="#291818" stroke-width="0.969387755" stroke-linecap="round" stroke-linejoin="round"></path>
                <path d="M12.4526545,21.7545727 C11.7062804,21.8450488 10.9523121,21.8902869 10.1907497,21.8902869" id="路径-6备份" stroke="#291818" stroke-width="0.969387755" stroke-linecap="round" stroke-linejoin="round"></path>
                <path d="M13.5154337,23.3226811 C12.7561323,23.331242 12.0021641,23.2863466 11.253529,23.1879951" id="路径-6备份-2" stroke="#291818" stroke-width="0.969387755" stroke-linecap="round" stroke-linejoin="round" transform="translate(12.384481, 23.255852) scale(-1, 1) translate(-12.384481, -23.255852) "></path>
            </g>
            <g id="BUSD" transform="translate(21.000000, 21.000000)" fill-rule="nonzero">
                <path d="M0,10 C0,15.5228475 4.4771525,20 10,20 C15.5228475,20 20,15.5228475 20,10 C20,4.4771525 15.5228475,0 10,0 C4.4771525,0 0,4.4771525 0,10 Z" id="路径" fill="#F0B90B"></path>
                <path d="M14.6316667,8.38166666 L16.25,10 L10,16.25 L8.38166666,14.6316667 L14.6316667,8.38166666 Z M12.3833333,6.13333334 L14.0016667,7.75166666 L7.75166666,14.0016667 L6.13333334,12.3833333 L12.3833333,6.13333334 Z M10,3.75 L11.6183333,5.36833334 L7.66166666,9.32583334 L6.04333334,7.70666666 L10,3.75 Z M5.50333334,8.24666666 L7.1225,9.865 L5.36833334,11.6183333 L3.75,10 L5.50333334,8.24666666 Z" id="形状" fill="#FFFFFF"></path>
            </g>
        </g>
    </g>
</svg>