<?xml version="1.0" encoding="UTF-8"?>
<svg width="41px" height="41px" viewBox="0 0 41 41" version="1.1" xmlns="http://www.w3.org/2000/svg" xmlns:xlink="http://www.w3.org/1999/xlink">
    <title>自动FEL</title>
    <g id="页面-1" stroke="none" stroke-width="1" fill="none" fill-rule="evenodd">
        <g id="自动FEL">
            <g id="felicat备份">
                <circle id="蒙版" fill="#B84949" cx="19" cy="19.0646259" r="18.1598639"></circle>
                <path d="M29.5986395,33.7740214 C29.5986395,27.9205544 24.8534669,23.1753819 19,23.1753819 C13.1465331,23.1753819 8.40136054,27.9205544 8.40136054,33.7740214 L14.2902799,36.881965 L24.0387392,36.881965 L29.5986395,33.7740214 Z" id="路径" fill="#FFFFFF"></path>
                <path d="M29.5986395,33.7740214 C29.5986395,27.9205544 24.8534669,23.1753819 19,23.1753819 C13.1465331,23.1753819 8.40136054,27.9205544 8.40136054,33.7740214" id="路径备份" stroke="#291818" stroke-width="1.21708185"></path>
                <circle id="蒙版" stroke="#291818" stroke-width="1.21708185" cx="19" cy="19" r="18.3914591"></circle>
                <path d="M12.3574219,25.9023438 C12.3574219,27.2755049 15.3314054,28.3886719 19,28.3886719 C22.6685946,28.3886719 25.6425781,27.2755049 25.6425781,25.9023438" id="路径" stroke="#B84949" stroke-width="1.89323843" stroke-linecap="round"></path>
                <g id="编组-10" transform="translate(9.388672, 8.238281)">
                    <path d="M17.9601262,0.466757174 C18.2698918,0.776184701 18.4394961,1.20993306 18.4379729,1.68797263 L18.4321354,1.77777686 L17.9612582,5.52161223 C18.717845,6.81538083 19.1484375,8.30287931 19.1484375,9.8853411 C19.1484375,14.8782383 14.8619138,18.9257812 9.57421875,18.9257812 C4.28652374,18.9257812 0,14.8782383 0,9.8853411 C0,8.30205683 0.431040199,6.8138346 1.18835932,5.51959508 L0.710464548,1.68797263 C0.708941345,1.2096276 0.878852389,0.776490157 1.18831131,0.466757174 C1.6176894,0.0375906632 2.28353214,-0.105057565 2.93618683,0.0986819814 L6.38733517,1.35781099 C7.38426145,1.02562743 8.4568885,0.844900949 9.57421875,0.844900949 C10.6915658,0.844900949 11.7642083,1.02563286 12.7611473,1.35782597 L16.1794339,0.109678419 C16.9388197,-0.129799549 17.529828,0.0378961198 17.9601262,0.466757174 Z" id="形状结合" stroke="#291818" stroke-width="1.21708185" fill="#FFFFFF" fill-rule="nonzero" stroke-linejoin="round"></path>
                    <path d="M7.35735218,9.3282826 C7.10096086,8.76136165 6.29718601,8.34762137 5.34532354,8.34762137 C4.39268774,8.34762137 3.58838027,8.76203421 3.33267108,9.32966468" id="路径" stroke="#291818" stroke-width="1.01423488" stroke-linecap="round" stroke-linejoin="round"></path>
                    <path d="M15.8151426,9.3282826 C15.5587513,8.76136165 14.7549764,8.34762137 13.803114,8.34762137 C12.8504782,8.34762137 12.0461707,8.76203421 11.7904615,9.32966468" id="路径备份-4" stroke="#291818" stroke-width="1.01423488" stroke-linecap="round" stroke-linejoin="round"></path>
                    <path d="M15.828615,2.5050307 C15.9993955,2.54716329 16.0717394,2.59266822 16.0850029,2.65772207 L16.0850029,2.65772207 L16.0328474,3.08250224 C15.8611908,2.92093792 15.6796377,2.77001103 15.4892183,2.63074729 L15.4892183,2.63074729 Z" id="路径" stroke="#B84949" stroke-width="1.386121" fill-rule="nonzero"></path>
                    <path d="M3.019,2.552 L3.49734164,2.69750959 C3.34107673,2.81682285 3.19109292,2.94412316 3.04798698,3.07881625 L3.04798698,3.07881625 L2.99464661,2.64479345 C2.99816594,2.59768018 3.01100156,2.55274653 3.04266272,2.52061969 L3.019,2.552 Z" id="路径" stroke="#B84949" stroke-width="1.386121" fill-rule="nonzero"></path>
                    <path d="M9.57687968,12.194326 L10.1860433,12.7881724 L9.23900604,13.0463247 L9.44271054,12.2513575 C9.48230541,12.2206663 9.52869773,12.2014103 9.57687968,12.194326 L9.57687968,12.194326 Z" id="三角形" stroke="#291818" stroke-width="1.0480427" transform="translate(9.618683, 12.453840) scale(1, -1) translate(-9.618683, -12.453840) "></path>
                    <path d="M6.63090769,13.0452706 C6.63090769,13.8665322 7.29736367,14.5322963 8.1194788,14.5322963 C8.94159392,14.5322963 9.60804991,13.8665322 9.60804991,13.0452706" id="路径" stroke="#291818" stroke-width="0.8113879" stroke-linecap="round"></path>
                    <path d="M9.60804991,13.0452706 C9.60804991,13.8665322 10.2745059,14.5322963 11.096621,14.5322963 C11.9187361,14.5322963 12.5851921,13.8665322 12.5851921,13.0452706" id="路径" stroke="#291818" stroke-width="0.8113879" stroke-linecap="round"></path>
                </g>
                <g id="编组" transform="translate(16.673469, 26.884354)" fill-rule="nonzero">
                    <path d="M2.35845808,3.8548685 C3.41686453,3.8548685 4.27487248,2.9919268 4.27487248,1.92743425 C4.27487248,0.862941708 3.41686453,0 2.35845808,0 C1.30005164,0 0.442043691,0.862941708 0.442043691,1.92743425 C0.442043691,2.9919268 1.30005164,3.8548685 2.35845808,3.8548685 Z" id="路径" stroke="#FFDC69" stroke-width="0.678571429" fill="#FFDC69"></path>
                    <path d="M2.64048544,3.43966294 L2.64048544,4.26360947 C2.55274847,4.27233471 2.46366429,4.24456747 2.37355286,4.24456746 C2.31348981,4.24456746 2.22451228,4.2509148 2.10662028,4.26360947 L2.10662028,3.43966294 C2.00419873,3.36029846 1.93823602,3.23662117 1.93823602,3.09768727 C1.93823602,2.85857226 2.13310977,2.66477487 2.37355286,2.66477487 C2.61399596,2.66477487 2.80886971,2.85857225 2.80886971,3.09768727 C2.80886971,3.23662118 2.74289015,3.36028172 2.64048544,3.43966294 Z" id="路径" fill="#FFFFFF"></path>
                    <path d="M4.54815707,2.24559573 L0.234155854,2.24559573 C0.104829854,2.24559573 0,2.13002417 0,1.9874464 L0,1.85748655 C0,1.71490878 0.104829861,1.59933722 0.234155854,1.59933722 L4.54815707,1.59933722 C4.67748307,1.59933722 4.78231293,1.71492379 4.78231293,1.85748655 L4.78231293,1.9874464 C4.78231293,2.13002417 4.67748306,2.24559573 4.54815707,2.24559573 Z" id="路径" fill="#FEB102"></path>
                </g>
                <g id="编组-9" transform="translate(27.349609, 23.230469) rotate(18.000000) translate(-27.349609, -23.230469) translate(23.601562, 17.849609)" fill="#FFFFFF" stroke="#291818" stroke-width="1.21708185">
                    <rect id="矩形" fill-rule="nonzero" stroke-linejoin="round" x="1.45194609" y="0.541470126" width="4.57285095" height="10.2202486" rx="2.28642548"></rect>
                    <path d="M3.74804687,0.608540925 C4.64478489,0.608540925 5.46044734,0.854634492 6.04942012,1.26677607 C6.54533482,1.61379901 6.88755282,2.0824774 6.88755282,2.62274592 C6.88755282,2.89516852 6.79847455,3.15209471 6.64617823,3.38365149 C5.57748498,4.10193116 5.46568207,4.39739209 5.02525722,4.39427134 C4.41492569,3.97207422 4.17628384,3.79090385 3.74804688,3.79090385 C3.29610518,3.79090385 3.07107611,3.98558537 2.83988351,4.25691318 C1.51376175,3.35472842 1.22074451,3.34997665 0.948063201,3.31737795 C0.69728713,3.15114155 0.608540925,2.8946605 0.608540925,2.62274592 C0.608540925,2.0824774 0.950758926,1.61379901 1.44667363,1.26677607 C2.03564641,0.854634492 2.85130886,0.608540925 3.74804687,0.608540925 Z" id="椭圆形"></path>
                </g>
                <path d="M11.3336956,20.3905544 C10.7372978,20.4810306 10.177207,20.5262687 9.6534235,20.5262687" id="路径-6" stroke="#291818" stroke-width="0.969387755" stroke-linecap="round" stroke-linejoin="round"></path>
                <path d="M12.4526545,21.7545727 C11.7062804,21.8450488 10.9523121,21.8902869 10.1907497,21.8902869" id="路径-6备份" stroke="#291818" stroke-width="0.969387755" stroke-linecap="round" stroke-linejoin="round"></path>
                <path d="M13.5154337,23.3226811 C12.7561323,23.331242 12.0021641,23.2863466 11.253529,23.1879951" id="路径-6备份-2" stroke="#291818" stroke-width="0.969387755" stroke-linecap="round" stroke-linejoin="round" transform="translate(12.384481, 23.255852) scale(-1, 1) translate(-12.384481, -23.255852) "></path>
            </g>
            <g id="自动转换" transform="translate(21.000000, 21.000000)">
                <circle id="椭圆形" stroke="#291818" stroke-width="0.909090909" fill="#DD7171" cx="10" cy="10" r="9.54545455"></circle>
                <path d="M12.7576016,12.8316738 C12.0897939,13.2516565 11.3081674,13.4623156 10.5089336,13.452689 C10.4039255,13.4515491 10.2990045,13.446862 10.1943991,13.4386381 C10.1521494,13.4350034 10.1098997,13.428756 10.0670604,13.4240878 C9.98548241,13.4141941 9.90391751,13.4043237 9.82469764,13.3905282 C9.77541284,13.3822138 9.7272809,13.3710428 9.67916206,13.3608936 C9.60112125,13.3445202 9.52365687,13.3278682 9.44737155,13.307593 C9.41099093,13.2974439 9.37519984,13.2857271 9.33881922,13.2748115 C9.25138521,13.2485444 9.163925,13.2212438 9.07886222,13.1892519 C9.0594994,13.1822381 9.04072611,13.1741675 9.02193972,13.1663756 C8.92217796,13.1271028 8.82417169,13.0860184 8.72912618,13.0397201 C8.72443614,13.0376299 8.72091205,13.0358184 8.7162089,13.0337397 C8.3950683,12.8755367 8.10088086,12.6777385 7.84244525,12.446261 C7.83834473,12.4426147 7.83423111,12.4384343 7.8301306,12.4343003 C7.74973166,12.3622575 7.67344634,12.2865916 7.6006982,12.2080459 C7.585449,12.1911267 7.57076312,12.1731857 7.55550082,12.1560227 C7.03030723,11.5664653 6.71344083,10.8203506 6.71344083,10.008696 L7.60422229,10.008696 C7.62710919,10.008696 7.64940657,9.99778046 7.66114479,9.97852724 C7.67260104,9.96007329 7.67146861,9.93749289 7.65821023,9.92001277 L6.16124672,7.90479947 C6.14950851,7.88919252 6.12970026,7.87878788 6.10710157,7.87878788 C6.0848173,7.87878788 6.06485184,7.8891809 6.05312672,7.90479947 L4.55615011,9.91974569 C4.54353415,9.93690869 4.54147734,9.95927402 4.55321556,9.97850402 C4.56495378,9.99773401 4.58725115,10.0086844 4.61013806,10.0086844 L5.50093262,10.0086844 C5.50093262,10.9628454 5.83247179,11.8473208 6.39538227,12.5786182 C6.40241734,12.5887557 6.40710738,12.5996829 6.41474509,12.6098321 C6.47343618,12.6847315 6.53798328,12.753639 6.60077489,12.8243697 C6.6236487,12.8511593 6.64594607,12.8787269 6.67001204,12.9050056 C6.7621361,13.0053825 6.86015547,13.0995351 6.96048055,13.1918531 C6.97045018,13.2009571 6.97926694,13.2100612 6.98864704,13.2181201 C7.32414678,13.51967 7.70673569,13.7769783 8.12471272,13.9821758 C8.13538648,13.9883056 8.14634849,13.9940318 8.15756926,13.9993388 C8.27728337,14.0570753 8.40050846,14.1093539 8.52550215,14.1587644 C8.55660319,14.1707134 8.58652517,14.1839747 8.61821574,14.1959586 C8.72502567,14.2354753 8.83477015,14.2703239 8.94507797,14.3036048 C8.99729732,14.3194788 9.04894024,14.3355967 9.10176223,14.3501586 C9.19858943,14.3759031 9.29717213,14.3972233 9.39633126,14.4185551 C9.46263385,14.432339 9.52778358,14.4471679 9.59526524,14.4586176 C9.6228422,14.4638199 9.64924009,14.4713563 9.67681704,14.4752465 C9.77072279,14.4900754 9.86461544,14.4984014 9.95849499,14.5088061 C9.99251748,14.5121736 10.0259766,14.517376 10.0594358,14.5207668 C10.2284347,14.5355841 10.3962546,14.5454545 10.5640744,14.5454545 C11.5916009,14.5454545 12.5938692,14.2635539 13.4535627,13.7228844 C13.7276161,13.5502092 13.7945082,13.2113618 13.6026093,12.9650645 C13.410147,12.718535 13.0316419,12.658987 12.7576147,12.8316738 M15.2570482,9.08142707 C15.2564717,8.12964196 14.9272323,7.24654358 14.3667339,6.51643348 C14.3585055,6.50393231 14.3526487,6.49118716 14.3438438,6.47974324 C14.2740075,6.39049233 14.1983013,6.3072364 14.1225689,6.22371326 C14.1137771,6.21357058 14.1055619,6.20289347 14.0961674,6.19301801 C13.5832048,5.63439235 12.9394007,5.20271861 12.2092905,4.92067551 C12.1893354,4.91285647 12.1693803,4.90401503 12.1494252,4.89620761 C12.0326296,4.85326679 11.9135017,4.81528694 11.7937712,4.77911952 C11.7503495,4.76637437 11.7074913,4.75232798 11.66348,4.74061685 C11.5590138,4.71224524 11.4527919,4.68909019 11.3459673,4.66696916 C11.2867047,4.65474683 11.2280055,4.64122326 11.1681402,4.63080175 C11.138201,4.6255968 11.1106203,4.61778938 11.0812707,4.61311887 C11.0014634,4.6006177 10.9210403,4.59515715 10.8412331,4.58604849 C10.7860716,4.57979791 10.7314866,4.57199048 10.6757224,4.56678554 C10.541317,4.55560884 10.408104,4.55091509 10.2748778,4.54883544 C10.2508085,4.54883544 10.2267392,4.54545455 10.2026831,4.54545455 C10.1985689,4.54545455 10.1944547,4.54650018 10.1897771,4.54675578 C9.16387814,4.54752258 8.16322767,4.82566198 7.30459512,5.36583796 C7.02992757,5.5380892 6.96302624,5.87764233 7.15493845,6.12404083 C7.34685066,6.37043934 7.72598439,6.43028462 8.00004923,6.25751056 C8.6632581,5.84041765 9.43736647,5.62940814 10.2308403,5.63565873 C10.3452906,5.63643715 10.4573824,5.64137488 10.5683081,5.65075075 C10.6029249,5.65438725 10.6363887,5.65881378 10.670429,5.66271749 C10.7619892,5.67261618 10.8523702,5.6843157 10.9415719,5.70019776 C10.9808925,5.70695954 11.0202131,5.7160682 11.0583676,5.723864 C11.1458136,5.7415585 11.2332727,5.76055424 11.3189499,5.78370928 C11.3459411,5.79152832 11.3723557,5.80011416 11.3993468,5.80816557 C11.4973666,5.83679278 11.5930148,5.86776687 11.6874968,5.90287703 C11.6969044,5.90651352 11.7068623,5.91094005 11.7162568,5.91432094 C12.2814459,6.13262667 12.7773753,6.46878729 13.1641347,6.88900549 C13.1664931,6.89160797 13.1688254,6.89498886 13.1711707,6.89732412 C13.7158151,7.49239603 14.0438753,8.25318976 14.0438753,9.08139221 L13.1529713,9.08139221 C13.1291855,9.08141594 13.1073307,9.09300586 13.0960541,9.11157626 C13.0845992,9.13012977 13.0857304,9.15279231 13.0989891,9.1703759 L14.596735,11.1863637 C14.6078983,11.2019785 14.6278665,11.2121212 14.6507435,11.2121212 C14.6724673,11.2121212 14.692731,11.2024163 14.7047389,11.1863637 L16.2013318,9.1703759 C16.2145794,9.15279337 16.2157104,9.13013964 16.2042667,9.11158788 C16.1929971,9.09300849 16.171141,9.08140893 16.1473495,9.08138059 L15.2570351,9.08138059 L15.2570351,9.08142707 L15.2570482,9.08142707 Z" id="形状" fill="#291818" fill-rule="nonzero" transform="translate(10.378788, 9.545455) rotate(90.000000) translate(-10.378788, -9.545455) "></path>
            </g>
        </g>
    </g>
</svg>