<?xml version="1.0" encoding="UTF-8"?>
<svg width="43px" height="42px" viewBox="0 0 43 42" version="1.1" xmlns="http://www.w3.org/2000/svg" xmlns:xlink="http://www.w3.org/1999/xlink">
    <title>PDD- BUSD</title>
    <g id="页面-1" stroke="none" stroke-width="1" fill="none" fill-rule="evenodd">
        <g id="PDD--BUSD" transform="translate(1.000000, 1.000000)" fill-rule="nonzero">
            <g id="PDD">
                <circle id="椭圆形" stroke="#080808" stroke-width="1.32" fill="#FFFFFF" cx="19" cy="19" r="19"></circle>
                <g id="编组-3备份" transform="translate(7.045593, 8.778116)">
                    <ellipse id="椭圆形" fill="#FFFFFF" cx="12.063595" cy="12.383249" rx="11.6260179" ry="11.6410671"></ellipse>
                    <g id="编组-4" transform="translate(-0.000000, 0.000000)">
                        <path d="M0.92383661,0.90367838 C-0.0789276431,2.06323374 -0.0789276431,3.46498431 0.0735589637,4.19025286 C0.226045571,4.91552142 0.759236749,5.87645142 1.20702103,5.87645142 C1.6548053,5.87645142 1.94645456,4.81402518 3.35823604,3.39277409 C4.77001751,1.97152298 6.02731719,1.8990705 6.19463331,1.53047635 C6.36194942,1.1618822 5.75298846,0.539937625 4.71020163,0.230793096 C3.66741481,-0.0783514324 1.92660087,-0.255876971 0.92383661,0.90367838 Z" id="路径-2备份-5" fill="#111111"></path>
                        <path d="M23.1004795,0.90367838 C24.1032437,2.06323374 24.1032437,3.46498431 23.9507571,4.19025286 C23.7982705,4.91552142 23.2650793,5.87645142 22.8172951,5.87645142 C22.3695108,5.87645142 22.0778615,4.81402518 20.6660801,3.39277409 C19.2542985,1.97152298 17.9969989,1.8990705 17.8296828,1.53047635 C17.6623667,1.1618822 18.2713277,0.539937625 19.3141145,0.230793096 C20.3569013,-0.0783514324 22.0977153,-0.255876971 23.1004795,0.90367838 Z" id="路径-2备份-6" fill="#111111"></path>
                        <path d="M10.8249285,5.96286983 L13.1355973,5.96286983 C13.1355973,5.96286983 12.863771,6.26578125 12.863771,6.47782031 C12.863771,6.68985401 12.9657058,7.1921787 13.1129933,7.43198268 L10.8023004,7.43198268 C10.8023004,7.43198268 11.1189482,6.88637185 11.0967548,6.46645926 C11.0882784,6.3055369 10.8249285,5.96286983 10.8249285,5.96286983 Z" id="路径" fill="#11BB68"></path>
                        <path d="M10.8249285,13.3948525 L13.1355973,13.3948525 C13.1355973,13.3948525 12.791154,14.036312 12.791154,14.4853358 C12.791154,14.9343485 12.9657058,15.9980948 13.1129933,16.505915 L10.8023004,16.505915 C10.8023004,16.505915 11.1915651,15.3505039 11.1693717,14.4612772 C11.1608953,14.1205004 10.8249285,13.3948525 10.8249285,13.3948525 Z" id="路径备份" fill="#11BB68"></path>
                        <path d="M10.8249285,8.20974831 L13.1355973,8.20974831 C13.1355973,8.20974831 12.791154,9.13630089 12.791154,9.78489099 C12.791154,10.4334646 12.9657058,11.9699872 13.1129933,12.7035053 L10.8023004,12.7035053 C10.8023004,12.7035053 11.1915651,11.034578 11.1693717,9.75013952 C11.1608953,9.25790639 10.8249285,8.20974831 10.8249285,8.20974831 Z" id="路径备份-3" fill="#11BB68"></path>
                        <path d="M10.8249285,17.2836807 L13.1355973,17.2836807 C13.1355973,17.2836807 12.863771,18.0855051 12.863771,18.6467849 C12.863771,19.2080506 12.9657058,20.5377335 13.1129933,21.1725089 L10.8023004,21.1725089 C10.8023004,21.1725089 11.1189482,19.7282448 11.0967548,18.6167116 C11.0882784,18.1907406 10.8249285,17.2836807 10.8249285,17.2836807 Z" id="路径备份-2" fill="#11BB68"></path>
                        <g id="编组-2" transform="translate(8.606594, 11.209981) scale(-1, 1) rotate(8.000000) translate(-8.606594, -11.209981) translate(6.259169, 8.872901)" fill="#11BB68">
                            <path d="M1.39883211,3.70968378 C1.39883211,3.70968378 1.62196689,2.31932986 2.61762786,1.76324759 C3.61334372,1.20714678 4.69485109,0.529365927 4.69485109,0.529365927 C4.69485109,0.529365927 4.52315827,1.79798422 3.30434423,2.91024141 C2.08554848,4.02251713 1.39883211,3.70968378 1.39883211,3.70968378 Z" id="路径"></path>
                            <path d="M1.0364183,0.0881899354 C1.0364183,0.0881899354 0.570881831,1.95033656 0.519210376,2.3986084 C0.467520531,2.84688023 0.847317326,3.53668084 1.08890475,3.69192474 C1.08890475,3.69192474 1.77911135,3.32997685 1.67537365,2.26093647 C1.57161753,1.19182259 1.2090545,0.312385926 1.0364183,0.0881899354 Z" id="路径" transform="translate(1.100216, 1.890057) rotate(-14.000000) translate(-1.100216, -1.890057) "></path>
                            <polygon id="路径" transform="translate(1.003090, 3.975292) rotate(-27.000000) translate(-1.003090, -3.975292) " points="0.0223222196 4.11990953 1.84903793 3.69066191 1.98385849 3.78405393 0.139694885 4.25992293"></polygon>
                        </g>
                        <path d="M5.58964708,5.16556165 C2.27064674,6.22426901 3.06746653,9.51077891 4.66953112,9.32567353 C6.27159572,9.14056815 5.83897402,7.64000496 7.22637506,6.76477603 C8.61377612,5.88954712 8.90864742,4.10685429 5.58964708,5.16556165 Z" id="路径-4" fill="#111111"></path>
                        <path d="M17.8610603,5.16556165 C14.54206,6.22426901 15.3388798,9.51077891 16.9409444,9.32567353 C18.543009,9.14056815 18.1103873,7.64000496 19.4977883,6.76477603 C20.8851893,5.88954712 21.1800607,4.10685429 17.8610603,5.16556165 Z" id="路径-4备份" fill="#111111" transform="translate(18.018237, 7.086309) scale(-1, 1) translate(-18.018237, -7.086309) "></path>
                        <g id="编组" transform="translate(9.073782, 0.172463)" fill="#11BB68">
                            <path d="M4.40650882,0.0929031563 L4.54290941,0.0928524052 C4.86396844,0.0923103139 5.12433356,0.352484992 5.12445103,0.673544184 C5.12445103,0.673686063 5.12445103,0.67382794 5.12402554,0.673969663 L5.12282762,3.94413716 C5.12228428,4.26502999 4.8621784,4.52513575 4.54128558,4.52567894 L4.40488499,4.52572969 C4.08382596,4.52627178 3.82346083,4.2660971 3.82334337,3.94503791 C3.82334337,3.94489603 3.82334337,3.94475415 3.82376885,3.94461243 L3.82496677,0.67444493 C3.82551011,0.353552101 4.08561599,0.0934463465 4.40650882,0.0929031563 Z" id="矩形" transform="translate(4.473897, 2.309291) rotate(15.000000) translate(-4.473897, -2.309291) "></path>
                            <path d="M3.05326907,0.0928819514 L3.18966966,0.0928312003 C3.5107287,0.0922891091 3.77109382,0.352463787 3.77121127,0.673522979 C3.77121127,0.673664858 3.77121127,0.673806735 3.7707858,0.673948458 L3.76942945,4.37658676 C3.76888611,4.69747958 3.50878023,4.95758535 3.18788741,4.95812853 L3.05148683,4.95817928 C2.73042778,4.95872137 2.47006266,4.69854669 2.4699452,4.3774875 C2.4699452,4.37734563 2.4699452,4.37720375 2.47037068,4.37706202 L2.47172703,0.674423725 C2.47227037,0.353530897 2.73237625,0.0934251417 3.05326907,0.0928819514 Z" id="矩形备份-12" transform="translate(3.120578, 2.525505) scale(-1, 1) rotate(15.000000) translate(-3.120578, -2.525505) "></path>
                            <path d="M0.868077475,2.65291818 L1.00447806,2.65286742 C1.3255371,2.65232533 1.58590222,2.91250001 1.58601968,3.2335592 C1.58601968,3.23370108 1.58601968,3.23384296 1.5855942,3.23398468 L1.58514878,4.44991588 C1.58460544,4.77080872 1.32449956,5.03091447 1.00360674,5.03145766 L0.867206152,5.03150842 C0.546147116,5.03205051 0.285781995,4.77187583 0.285664532,4.45081663 C0.285664532,4.45067475 0.285664532,4.45053288 0.286090012,4.45039115 L0.286535431,3.23445994 C0.287078771,2.91356712 0.547184646,2.65346137 0.868077475,2.65291818 Z" id="矩形备份-9" transform="translate(0.935842, 3.842188) scale(-1, 1) rotate(15.000000) translate(-0.935842, -3.842188) "></path>
                            <path d="M2.07864196,1.9307661 L2.21504254,1.93071534 C2.53610159,1.93017325 2.79646671,2.19034793 2.79658417,2.51140713 C2.79658417,2.511549 2.79658417,2.51169088 2.79615869,2.5118326 L2.79527761,4.9170585 C2.79473426,5.23795133 2.53462839,5.49805709 2.21373556,5.49860028 L2.07733498,5.49865103 C1.75627593,5.49919312 1.49591081,5.23901845 1.49579336,4.91795925 C1.49579336,4.91781737 1.49579336,4.91767549 1.49621883,4.91753377 L1.49709991,2.51230787 C1.49764326,2.19141504 1.75774913,1.93130929 2.07864196,1.9307661 Z" id="矩形备份-13" transform="translate(2.146189, 3.714683) scale(-1, 1) rotate(15.000000) translate(-2.146189, -3.714683) "></path>
                            <path d="M4.13565982,2.46976251 L4.27060061,2.46983606 C4.59141274,2.4700107 4.85143871,2.73003681 4.85161318,3.05084894 L4.85245259,4.5941727 C4.85262712,4.91523187 4.59249879,5.17564329 4.27143962,5.17581798 C4.27122875,5.17581798 4.27101788,5.17581798 4.27080701,5.17581798 L4.13586623,5.17574444 C3.81505409,5.1755698 3.55502811,4.91554369 3.55485365,4.59473155 L3.55401424,3.0514078 C3.55383971,2.73034863 3.81396805,2.4699372 4.13502721,2.46976251 C4.13523808,2.46976251 4.13544895,2.46976251 4.13565982,2.46976251 Z" id="矩形备份-11" transform="translate(4.203233, 3.822790) rotate(-66.000000) translate(-4.203233, -3.822790) "></path>
                            <path d="M0.459045457,4.55350781 L0.677158582,5.26154648 C0.789826609,5.62728935 1.12780397,5.87682493 1.51050743,5.87682493 L4.16165074,5.87682493 C4.49368428,5.87682493 4.79690424,5.6882581 4.94374114,5.39045748 L5.46447734,4.33434996 L5.46447734,4.33434996 L0.459045457,4.55350781 Z" id="路径-5"></path>
                        </g>
                    </g>
                    <path d="M23.2670222,10.02446 C23.4235836,10.7862004 23.505826,11.5751078 23.505826,12.383249 C23.505826,18.8124328 18.3006804,24.0243161 11.8798081,24.0243161 C6.36462537,24.0243161 1.74639165,20.1790498 0.553282448,15.0199652 C0.196220072,13.1589867 0.620485923,11.6271354 1.92812821,11.1751643 C4.48007897,10.2931126 5.81265733,14.6017884 9.92624303,18.0939611 C13.5017669,21.1293536 14.994347,20.94619 14.7897663,20.3263358 C14.5851857,19.7064818 10.0978676,14.6199161 14.7897663,15.2547009 C18.4963663,15.7561809 20.9583734,14.9209821 23.196612,10.1749819 L23.2670222,10.02446 Z" id="形状结合备份-2" fill="#111111" transform="translate(11.968959, 17.024388) scale(-1, 1) translate(-11.968959, -17.024388) "></path>
                </g>
            </g>
            <g id="BUSD" transform="translate(21.000000, 21.000000)">
                <path d="M0,10 C0,15.5228475 4.4771525,20 10,20 C15.5228475,20 20,15.5228475 20,10 C20,4.4771525 15.5228475,0 10,0 C4.4771525,0 0,4.4771525 0,10 Z" id="路径" fill="#F0B90B"></path>
                <path d="M14.6316667,8.38166666 L16.25,10 L10,16.25 L8.38166666,14.6316667 L14.6316667,8.38166666 Z M12.3833333,6.13333334 L14.0016667,7.75166666 L7.75166666,14.0016667 L6.13333334,12.3833333 L12.3833333,6.13333334 Z M10,3.75 L11.6183333,5.36833334 L7.66166666,9.32583334 L6.04333334,7.70666666 L10,3.75 Z M5.50333334,8.24666666 L7.1225,9.865 L5.36833334,11.6183333 L3.75,10 L5.50333334,8.24666666 Z" id="形状" fill="#FFFFFF"></path>
            </g>
        </g>
    </g>
</svg>