<?xml version="1.0" encoding="UTF-8"?>
<svg width="41px" height="41px" viewBox="0 0 41 41" version="1.1" xmlns="http://www.w3.org/2000/svg" xmlns:xlink="http://www.w3.org/1999/xlink">
    <title>SUSHI-BNB</title>
    <g id="页面-1" stroke="none" stroke-width="1" fill="none" fill-rule="evenodd">
        <g id="SUSHI-BNB" fill-rule="nonzero">
            <g id="SUSHI">
                <path d="M0,19 C0,29.4934102 8.50658975,38 19,38 C29.4934102,38 38,29.4934102 38,19 C38,8.50658975 29.4934102,0 19,0 C8.50658975,0 0,8.50658975 0,19 Z" id="路径" fill="#161521"></path>
                <path d="M31.673,22.591 C32.205,21.774 32.281,20.691 31.958,19.456 L31.692,19.399 C31.274,19.323 27.569,19.038 25.859,22.724 C24.149,26.429 20.691,25.935 18.658,22.173 C16.815,18.772 12.464,22.705 10.545,24.738 L10.944,25.327 C11.59,25.935 12.293,26.543 13.053,27.113 C18.316,31.065 24.054,32.338 26.068,30.02 L26.182,29.868 L31.559,22.743 L31.673,22.591 L31.673,22.591 Z" id="路径" fill="#0E0F22"></path>
                <path d="M25.194,10.887 C19.95,6.935 14.193,5.662 12.179,7.98 L12.065,8.132 L6.688,15.257 L6.574,15.409 C5.206,17.499 6.859,21.375 10.355,24.871 L10.469,24.757 C12.388,22.724 16.739,18.791 18.582,22.192 C20.615,25.954 24.073,26.448 25.783,22.743 C27.493,19.057 31.198,19.342 31.616,19.418 L31.882,19.475 C31.217,16.834 28.766,13.566 25.194,10.887 L25.194,10.887 Z" id="路径" fill="#E75F9E"></path>
                <path d="M25.08,23.332 C24.89,23.275 24.681,23.218 24.491,23.142 C24.377,23.104 24.282,23.161 24.244,23.256 C24.206,23.37 24.263,23.465 24.358,23.503 C24.567,23.56 24.776,23.636 24.966,23.693 C25.061,23.712 25.156,23.655 25.194,23.56 C25.213,23.465 25.156,23.351 25.08,23.332 L25.08,23.332 Z M11.913,11.818 C11.875,11.723 11.761,11.666 11.666,11.704 C11.571,11.742 11.514,11.856 11.552,11.932 C12.293,14.193 14.212,16.815 16.948,19.133 C17.024,19.209 17.138,19.19 17.214,19.114 C17.29,19.038 17.271,18.924 17.195,18.848 C14.497,16.53 12.635,13.965 11.913,11.818 L11.913,11.818 Z M11.723,11.21 L11.723,11.153 L11.723,11.039 L11.723,10.811 C11.723,10.697 11.647,10.621 11.533,10.621 C11.419,10.621 11.343,10.697 11.324,10.811 L11.324,11.172 C11.324,11.21 11.343,11.248 11.343,11.286 C11.362,11.4 11.476,11.457 11.571,11.438 C11.685,11.438 11.742,11.305 11.723,11.21 Z M28.538,23.826 C27.74,23.883 26.828,23.788 25.84,23.541 C25.745,23.503 25.631,23.579 25.612,23.674 C25.574,23.769 25.65,23.883 25.745,23.902 C26.752,24.149 27.702,24.263 28.557,24.206 C28.652,24.187 28.728,24.111 28.728,23.997 C28.728,23.902 28.633,23.788 28.538,23.826 L28.538,23.826 Z" id="形状" fill="#FFFFFF"></path>
                <path d="M24.434,11.742 C19.57,8.075 14.402,6.745 12.882,8.74 C11.381,10.754 14.079,15.352 18.943,19.019 C23.807,22.686 28.975,24.016 30.495,22.002 C32.015,19.988 29.298,15.39 24.434,11.742 Z M26.391,18.943 C25.631,19.95 23.009,19.247 20.539,17.385 C18.069,15.523 16.682,13.205 17.442,12.198 C18.202,11.191 20.824,11.894 23.294,13.756 C25.764,15.618 27.151,17.917 26.391,18.943 Z" id="形状" fill="#FFFFFF"></path>
                <path d="M25.118,10.868 C19.855,6.935 14.117,5.662 12.103,7.98 L6.498,15.39 C4.826,17.955 7.638,23.142 12.882,27.113 C18.145,31.065 23.883,32.338 25.897,30.02 L31.502,22.591 C33.174,20.045 30.362,14.858 25.118,10.868 L25.118,10.868 Z M31.35,22.458 L31.293,22.534 L25.821,29.83 L25.764,29.906 C24.833,30.989 22.99,31.255 20.653,30.742 C18.335,30.229 15.599,28.918 12.996,26.961 C10.393,25.004 8.398,22.743 7.258,20.653 C6.118,18.544 5.871,16.701 6.65,15.504 L6.707,15.428 L12.179,8.151 L12.236,8.075 C13.167,6.992 15.01,6.726 17.347,7.239 C19.665,7.752 22.401,9.044 25.004,11.02 C27.607,12.977 29.602,15.238 30.742,17.328 C31.882,19.418 32.129,21.28 31.35,22.458 L31.35,22.458 Z" id="形状" fill="#FFFFFF"></path>
            </g>
            <g id="BNB" transform="translate(21.000000, 21.000000)">
                <path d="M12.4151548,0.308078432 C7.05004968,-1.06103369 1.62244607,2.2709282 0.31193077,7.56964605 C-1.05912995,12.9269564 2.22008793,18.3428593 7.58714612,19.7119714 C12.9542043,21.0205379 18.3193094,17.7471686 19.6923232,12.3918113 C21.0614309,7.09309347 17.7236207,1.67719057 12.4151548,0.308078432 Z" id="路径" fill="#F0B90A"></path>
                <path d="M10.2198952,4.49939744 L13.8389486,8.25713172 L12.5538233,9.65163394 L10.1613029,7.16535758 L7.76878237,9.65163394 L6.54224942,8.37822295 L10.2198952,4.49939744 Z M11.6788444,10.5598182 L10.1613029,12.1359572 L8.64376128,10.5598182 L10.1613029,8.98367909 L11.6788444,10.5598182 Z M4.49932988,10.4992726 L5.6672705,9.28640717 L6.89380345,10.5598182 L5.72586283,11.7726836 L4.49932988,10.4992726 Z M10.2198952,16.4991477 L6.60084176,12.7414134 L7.76878237,11.528548 L9.98747892,13.8312344 L10.1632559,14.0128713 L12.5557764,11.528548 L13.8409017,12.8625046 L10.2198952,16.4991477 Z M14.6572883,11.8937748 L13.372163,10.5598182 L14.7139276,9.16531594 L15.9990528,10.4992726 L14.6572883,11.8937748 Z" id="形状" fill="#FFFFFF"></path>
            </g>
        </g>
    </g>
</svg>