<?xml version="1.0" encoding="UTF-8"?>
<svg width="41px" height="41px" viewBox="0 0 41 41" version="1.1" xmlns="http://www.w3.org/2000/svg" xmlns:xlink="http://www.w3.org/1999/xlink">
    <title>UNI-BNB</title>
    <g id="页面-1" stroke="none" stroke-width="1" fill="none" fill-rule="evenodd">
        <g id="UNI-BNB" fill-rule="nonzero">
            <g id="UNI">
                <path d="M19,38 C29.4939375,38 38,29.4939375 38,19 C38,8.5060625 29.4939375,0 19,0 C8.5060625,0 0,8.5060625 0,19 C0,29.4939375 8.5060625,38 19,38 Z" id="路径" fill="#FF007A"></path>
                <path d="M14.542125,6.0360625 C14.2036875,5.9838125 14.1894375,5.9766875 14.3485625,5.9529375 C14.65375,5.9054375 15.37575,5.97075 15.8733125,6.0883125 C17.0335,6.365 18.0891875,7.0715625 19.2173125,8.32675 L19.5165625,8.65925 L19.9440625,8.5915625 C21.7490625,8.300625 23.586125,8.5321875 25.1215625,9.241125 C25.5443125,9.435875 26.2105,9.8241875 26.293625,9.925125 C26.3209375,9.956 26.369625,10.162625 26.4005,10.3799375 C26.5156875,11.136375 26.4586875,11.715875 26.2283125,12.1493125 C26.1024375,12.3844375 26.0953125,12.4580625 26.179625,12.6599375 C26.2612664,12.8300555 26.432686,12.9388055 26.621375,12.9401875 C27.00375,12.9401875 27.414625,12.3226875 27.604625,11.464125 L27.680625,11.1233125 L27.83025,11.293125 C28.652,12.224125 29.2968125,13.4935625 29.40725,14.3960625 L29.4369375,14.6335625 L29.298,14.4198125 C29.0605,14.0516875 28.823,13.79875 28.516625,13.5956875 C27.965625,13.231125 27.3825625,13.1088125 25.8388125,13.0256875 C24.4446875,12.9520625 23.6538125,12.8333125 22.873625,12.578 C21.5424375,12.1445625 20.8715,11.56625 19.28975,9.4916875 C18.5879375,8.5701875 18.1533125,8.06075 17.72225,7.6510625 C16.7401875,6.7176875 15.77475,6.2284375 14.542125,6.0360625 L14.542125,6.0360625 Z" id="路径" fill="#FFFFFF"></path>
                <path d="M26.6914375,8.789875 C26.7270625,8.172375 26.8101875,7.7650625 26.9788125,7.393375 C27.0453125,7.246125 27.1094375,7.125 27.11775,7.125 C27.1071843,7.20836164 27.0852077,7.28987485 27.0524375,7.36725 C26.930125,7.72825 26.9099375,8.22225 26.99425,8.7958125 C27.101125,9.5249375 27.162875,9.6294375 27.932375,10.41675 C28.2945625,10.7860625 28.716125,11.2515625 28.8669375,11.45225 L29.143625,11.815625 L28.8669375,11.5555625 C28.5285,11.2385 27.7506875,10.6174375 27.5773125,10.5295625 C27.462125,10.4701875 27.4443125,10.471375 27.3730625,10.5414375 C27.30775,10.6079375 27.2935,10.7053125 27.2851875,11.169625 C27.2709375,11.891625 27.172375,12.357125 26.9336875,12.82025 C26.8054375,13.069625 26.78525,13.017375 26.901625,12.7335625 C26.9883125,12.5221875 26.996625,12.4295625 26.996625,11.730125 C26.996625,10.324125 26.830375,9.986875 25.8495,9.407375 C25.5547033,9.23634185 25.2519451,9.07941485 24.94225,8.937125 C24.7892493,8.87575423 24.6408296,8.80352862 24.498125,8.721 C24.5254375,8.6936875 25.4801875,8.9715625 25.86375,9.12 C26.436125,9.3396875 26.5299375,9.3681875 26.6,9.340875 C26.6475,9.3230625 26.668875,9.1876875 26.6914375,8.789875 L26.6914375,8.789875 Z M15.283125,11.1945625 C14.5955625,10.248125 14.1704375,8.7958125 14.261875,7.7104375 L14.290375,7.374375 L14.447125,7.402875 C14.741625,7.4563125 15.2486875,7.645125 15.4861875,7.79 C16.1369375,8.1854375 16.4195625,8.70675 16.70575,10.043875 C16.7900625,10.43575 16.9005,10.8786875 16.9515625,11.0295 C17.0323125,11.2705625 17.3410625,11.834625 17.5928125,12.2015625 C17.7733125,12.4651875 17.6521875,12.589875 17.2531875,12.55425 C16.6428125,12.4984375 15.8163125,11.9284375 15.283125,11.1945625 L15.283125,11.1945625 Z M25.8578125,18.242375 C22.64325,16.948 21.5115625,15.824625 21.5115625,13.929375 C21.5115625,13.6503125 21.5210625,13.4223125 21.53175,13.4223125 C21.543625,13.4223125 21.6683125,13.51375 21.8084375,13.6265625 C22.4615625,14.1490625 23.1906875,14.3723125 25.210625,14.6668125 C26.3993125,14.841375 27.0690625,14.9815 27.6865625,15.18575 C29.6483125,15.8365 30.8619375,17.157 31.1516875,18.954875 C31.2348125,19.477375 31.1873125,20.4570625 31.0495625,20.973625 C30.9426875,21.382125 30.61375,22.1171875 30.5270625,22.1456875 C30.5033125,22.1528125 30.4795625,22.061375 30.4724375,21.9343125 C30.4391875,21.2598125 30.098375,20.6019375 29.5248125,20.109125 C28.872875,19.5498125 27.9976875,19.1033125 25.856625,18.242375 L25.8578125,18.242375 L25.8578125,18.242375 Z M23.6015625,18.779125 C23.5639333,18.5497859 23.5123796,18.3229498 23.4471875,18.099875 L23.3640625,17.85525 L23.5160625,18.02625 C23.72625,18.26375 23.8936875,18.565375 24.0338125,18.969125 C24.141875,19.2766875 24.15375,19.368125 24.1525625,19.8680625 C24.1525625,20.3596875 24.1406875,20.4618125 24.03975,20.7396875 C23.9014025,21.147021 23.6695887,21.5162964 23.362875,21.8179375 C22.773875,22.4164375 22.021,22.7465625 20.9296875,22.8843125 C20.7396875,22.9080625 20.1886875,22.9484375 19.703,22.973375 C18.479875,23.0375 17.6759375,23.168125 16.95275,23.42225 C16.8875215,23.4514207 16.8174781,23.4683278 16.746125,23.472125 C16.717625,23.4424375 17.20925,23.149125 17.6165625,22.9531875 C18.190125,22.6765 18.760125,22.5256875 20.0390625,22.313125 C20.6708125,22.2074375 21.3239375,22.080375 21.489,22.0293125 C23.054125,21.5495625 23.8580625,20.3121875 23.600375,18.779125 L23.6015625,18.779125 L23.6015625,18.779125 Z" id="形状" fill="#FFFFFF"></path>
                <path d="M24.303375,21.7918125 C23.875875,20.873875 23.7785,19.9868125 24.0124375,19.1603125 C24.037375,19.0724375 24.07775,19 24.1015,19 C24.181875,19.029089 24.2575058,19.0699056 24.3259375,19.121125 C24.5230625,19.254125 24.9173125,19.477375 25.96825,20.04975 C27.2804375,20.7658125 28.0285625,21.320375 28.538,21.952125 C28.9833125,22.5066875 29.2588125,23.1384375 29.3918125,23.9079375 C29.466625,24.34375 29.4226875,25.3923125 29.3110625,25.8316875 C28.958375,27.2163125 28.1378125,28.3040625 26.9693125,28.9381875 C26.858875,29.0023125 26.7436875,29.0593125 26.6273125,29.108 C26.6106875,29.108 26.6724375,28.9500625 26.76625,28.7553125 C27.158125,27.9335625 27.2044375,27.1331875 26.906375,26.2425625 C26.7246875,25.6975 26.353,25.0313125 25.6036875,23.9079375 C24.7320625,22.6016875 24.5183125,22.2525625 24.303375,21.7918125 L24.303375,21.7918125 Z M12.2300625,26.744875 C13.4235,25.737875 14.9066875,25.023 16.25925,24.8033125 C16.841125,24.7083125 17.8125,24.7463125 18.351625,24.8840625 C19.216125,25.1049375 19.990375,25.6013125 20.3929375,26.1915 C20.7848125,26.768625 20.954625,27.272125 21.1291875,28.39075 C21.2004375,28.8325 21.27525,29.2754375 21.2978125,29.376375 C21.4284375,29.955875 21.686125,30.4201875 22.004375,30.6529375 C22.5090625,31.02225 23.3795,31.0448125 24.2345,30.7123125 C24.3238307,30.671303 24.4179971,30.6417762 24.51475,30.6244375 C24.545625,30.6553125 24.11575,30.943875 23.81175,31.095875 C23.453125,31.28825 23.05175,31.385625 22.6444375,31.3785 C21.8606875,31.3785 21.2099375,30.9806875 20.66725,30.16725 C20.560375,30.0069375 20.3205,29.528375 20.132875,29.1020625 C19.5605,27.7958125 19.277875,27.3968125 18.612875,26.961 C18.0321875,26.581 17.28525,26.5133125 16.7235625,26.7888125 C15.9849375,27.151 15.7795,28.0950625 16.3079375,28.692375 C16.518125,28.929875 16.91,29.1353125 17.230625,29.1745 C17.5135394,29.2115909 17.7986594,29.1244072 18.0124485,28.935435 C18.2262376,28.7464627 18.3477651,28.4742028 18.3456875,28.188875 C18.3456875,27.794625 18.1936875,27.571375 17.8136875,27.3991875 C17.29475,27.16525 16.736625,27.438375 16.739,27.9264375 C16.7401875,28.13425 16.8304375,28.264875 17.0394375,28.359875 C17.173625,28.41925 17.176,28.4251875 17.06675,28.402625 C16.5905625,28.302875 16.4789375,27.7293125 16.8625,27.348125 C17.3220625,26.88975 18.27325,27.091625 18.5998125,27.71625 C18.7375625,27.9786875 18.753,28.502375 18.6330625,28.81825 C18.365875,29.5248125 17.5845,29.8953125 16.7924375,29.6934375 C16.2533125,29.5556875 16.033625,29.40725 15.3840625,28.7375 C14.25475,27.57375 13.8165625,27.348125 12.1873125,27.094 L11.875,27.0453125 L12.23125,26.744875 L12.2300625,26.744875 Z" id="形状" fill="#FFFFFF"></path>
                <path d="M7.125,3.75725 L7.239,3.8961875 C11.64225,9.2874375 13.9175,12.0851875 14.062375,12.2846875 C14.299875,12.6148125 14.2108125,12.9105 13.8023125,13.14325 C13.5755,13.2726875 13.107625,13.4033125 12.874875,13.4033125 C12.6100625,13.4033125 12.312,13.27625 12.0946875,13.0708125 C11.9415,12.92475 11.3228125,12.000875 9.89425,9.7838125 C9.2256875,8.7364375 8.547625,7.6938125 7.86125,6.657125 C7.8030625,6.6025 7.80425,6.6036875 9.782625,10.143625 C11.02475,12.366625 11.445125,13.1515625 11.445125,13.25725 C11.445125,13.471 11.38575,13.582625 11.122125,13.877125 C10.68275,14.3675625 10.4868125,14.9185625 10.3443125,16.0585625 C10.1851875,17.3375 9.7386875,18.24 8.4989375,19.7849375 C7.7745625,20.6898125 7.6558125,20.8560625 7.47175,21.220625 C7.241375,21.679 7.1784375,21.9366875 7.1523125,22.5161875 C7.125,23.1289375 7.1784375,23.5255625 7.3660625,24.111 C7.5299375,24.624 7.7009375,24.963625 8.1379375,25.6405 C8.5155625,26.2259375 8.732875,26.6605625 8.732875,26.830375 C8.732875,26.96575 8.759,26.96575 9.3444375,26.8339375 C10.7445,26.5180625 11.8809375,25.961125 12.521,25.2795 C12.9164375,24.8579375 13.0090625,24.6251875 13.012625,24.046875 C13.0138125,23.66925 13.00075,23.5896875 12.898625,23.372375 C12.732375,23.0185 12.4295625,22.724 11.7621875,22.268 C10.887,21.6695 10.514125,21.187375 10.4108125,20.5259375 C10.3253125,19.98325 10.423875,19.5996875 10.908375,18.5855625 C11.4083125,17.5358125 11.533,17.0893125 11.6173125,16.03125 C11.67075,15.34725 11.7455625,15.0776875 11.9426875,14.8615625 C12.1469375,14.6359375 12.3321875,14.55875 12.83925,14.489875 C13.66575,14.3770625 14.1918125,14.1633125 14.6240625,13.7655 C14.9993125,13.41875 15.1560625,13.0850625 15.1798125,12.5839375 L15.1988125,12.2039375 L14.988625,11.9593125 C14.687,11.6078125 12.1920625,8.8551875 7.502625,3.6990625 L7.37675,3.5625 L7.125,3.7584375 L7.125,3.75725 Z M9.160375,23.210875 C9.33213936,22.9067511 9.24233993,22.521749 8.95375,22.325 C8.683,22.1445 8.2614375,22.23 8.2614375,22.465125 C8.2614375,22.536375 8.300625,22.588625 8.3896875,22.6349375 C8.5405,22.712125 8.5511875,22.8 8.433625,22.9769375 C8.3136875,23.1574375 8.3231875,23.3165625 8.4609375,23.424625 C8.6818125,23.598 8.9953125,23.5018125 9.1615625,23.210875 L9.160375,23.210875 L9.160375,23.210875 Z M15.720125,14.689375 C15.3318125,14.808125 14.955375,15.2201875 14.8378125,15.65125 C14.7665625,15.9136875 14.8069375,16.375625 14.9138125,16.518125 C15.086,16.7485 15.2534375,16.8090625 15.7046875,16.8055 C16.5881875,16.7995625 17.3553125,16.42075 17.4455625,15.9469375 C17.5191875,15.558625 17.18075,15.0206875 16.7164375,14.7831875 C16.4765625,14.6620625 15.967125,14.613375 15.720125,14.689375 L15.720125,14.689375 Z M16.75325,15.496875 C16.8898125,15.3033125 16.82925,15.093125 16.598875,14.953 C16.157125,14.6834375 15.48975,14.9055 15.48975,15.3235 C15.48975,15.530125 15.8376875,15.7569375 16.1559375,15.7569375 C16.3696875,15.7569375 16.6594375,15.629875 16.75325,15.496875 Z" id="形状" fill="#FFFFFF"></path>
            </g>
            <g id="BNB" transform="translate(21.000000, 21.000000)">
                <path d="M12.4151548,0.308078432 C7.05004968,-1.06103369 1.62244607,2.2709282 0.31193077,7.56964605 C-1.05912995,12.9269564 2.22008793,18.3428593 7.58714612,19.7119714 C12.9542043,21.0205379 18.3193094,17.7471686 19.6923232,12.3918113 C21.0614309,7.09309347 17.7236207,1.67719057 12.4151548,0.308078432 Z" id="路径" fill="#F0B90A"></path>
                <path d="M10.2198952,4.49939744 L13.8389486,8.25713172 L12.5538233,9.65163394 L10.1613029,7.16535758 L7.76878237,9.65163394 L6.54224942,8.37822295 L10.2198952,4.49939744 Z M11.6788444,10.5598182 L10.1613029,12.1359572 L8.64376128,10.5598182 L10.1613029,8.98367909 L11.6788444,10.5598182 Z M4.49932988,10.4992726 L5.6672705,9.28640717 L6.89380345,10.5598182 L5.72586283,11.7726836 L4.49932988,10.4992726 Z M10.2198952,16.4991477 L6.60084176,12.7414134 L7.76878237,11.528548 L9.98747892,13.8312344 L10.1632559,14.0128713 L12.5557764,11.528548 L13.8409017,12.8625046 L10.2198952,16.4991477 Z M14.6572883,11.8937748 L13.372163,10.5598182 L14.7139276,9.16531594 L15.9990528,10.4992726 L14.6572883,11.8937748 Z" id="形状" fill="#FFFFFF"></path>
            </g>
        </g>
    </g>
</svg>