<?xml version="1.0" encoding="UTF-8"?>
<svg width="41px" height="41px" viewBox="0 0 41 41" version="1.1" xmlns="http://www.w3.org/2000/svg" xmlns:xlink="http://www.w3.org/1999/xlink">
    <title>USDC-BUSD</title>
    <g id="页面-1" stroke="none" stroke-width="1" fill="none" fill-rule="evenodd">
        <g id="USDC-BUSD" fill-rule="nonzero">
            <g id="USDC">
                <path d="M0,19 C0,29.4934102 8.50658975,38 19,38 C29.4934102,38 38,29.4934102 38,19 C38,8.50658975 29.4934102,0 19,0 C8.50658975,0 0,8.50658975 0,19 Z" id="路径" fill="#FFFFFF"></path>
                <path d="M19,0 C8.5082,0 0,8.5082 0,19 C0,29.4918 8.5082,38 19,38 C29.4918,38 38,29.4918 38,19 C38,8.5082 29.4918,0 19,0 Z M15.4432,32.0074 C15.4394,32.2772 15.2988,32.4862 15.0746,32.5546 C14.9264,32.6002 14.7782,32.5812 14.63,32.5356 C13.9536,32.3152 13.2924,32.0492 12.6578,31.73 C10.7236,30.7572 9.0858,29.4196 7.7596,27.7096 C6.3954,25.9502 5.4948,23.9742 5.0578,21.7854 C4.8754,20.8696 4.7766,19.9424 4.788,19.0076 C4.7728,14.497 6.9312,10.1954 10.659,7.486 C11.8788,6.6006 13.2012,5.928 14.6338,5.4644 C14.706,5.4416 14.7782,5.4226 14.8542,5.4188 C15.181,5.4036 15.4242,5.605 15.4356,5.9318 C15.4508,6.3536 15.4584,6.7754 15.4318,7.1934 C15.4128,7.5012 15.2342,7.7368 14.9416,7.8622 C14.6984,7.9648 14.4476,8.056 14.2044,8.1662 C11.8598,9.2226 10.0434,10.868 8.74,13.0834 C7.999,14.345 7.5278,15.7092 7.2922,17.1532 C7.1326,18.1488 7.0946,19.152 7.2048,20.1514 C7.581,23.5486 9.12,26.3036 11.8142,28.405 C12.7452,29.1308 13.775,29.6894 14.8846,30.096 C15.1316,30.1872 15.2912,30.3582 15.39,30.5976 C15.4204,30.6774 15.4394,30.761 15.4394,30.8446 C15.4432,31.236 15.447,31.6198 15.4432,32.0074 L15.4432,32.0074 Z M20.4174,25.9464 C20.197,25.9882 20.197,25.9882 20.197,26.2162 L20.197,27.8122 C20.178,28.291 19.8664,28.4886 19.5092,28.4772 C19.1444,28.4658 18.7758,28.4772 18.411,28.4734 C18.1222,28.4696 17.9094,28.2986 17.8334,28.0326 C17.8144,27.968 17.8144,27.9034 17.8144,27.8388 L17.8144,27.8084 L17.8144,27.0104 C17.8144,26.714 17.8106,26.4176 17.8144,26.1212 C17.8144,26.0414 17.7916,26.0072 17.708,25.9958 C17.3204,25.9388 16.9404,25.8552 16.568,25.7298 C15.7928,25.4676 15.1126,25.061 14.5806,24.4264 C14.1018,23.8564 13.8244,23.1914 13.6648,22.4732 C13.6458,22.3896 13.6306,22.306 13.6192,22.2224 C13.5736,21.9184 13.794,21.641 14.098,21.6106 C14.1322,21.6068 14.1664,21.6068 14.2044,21.6068 C14.63,21.6068 15.0556,21.6144 15.4812,21.603 C15.8118,21.5954 16.0474,21.8348 16.1006,22.1084 C16.1462,22.3516 16.2298,22.5796 16.3362,22.8038 C16.568,23.3054 16.948,23.6512 17.4496,23.8678 C17.8068,24.0198 18.1868,24.0958 18.5744,24.1262 C19.0418,24.1604 19.5054,24.1642 19.9652,24.0464 C20.349,23.9476 20.7062,23.7918 21.0102,23.5372 C21.5536,23.0774 21.7702,22.4846 21.7132,21.7854 C21.7018,21.66 21.6866,21.5346 21.6562,21.413 C21.5574,21.0102 21.318,20.7138 20.9646,20.5086 C20.6074,20.2958 20.216,20.178 19.8132,20.0792 C19.3154,19.9576 18.81,19.8854 18.3046,19.8056 C17.518,19.6802 16.739,19.5054 16.0056,19.1786 C15.7016,19.0456 15.4166,18.8784 15.1506,18.677 C14.5312,18.1982 14.1702,17.5598 14.0258,16.7998 C13.9498,16.4008 13.9194,15.9942 13.9498,15.5876 C14.0296,14.5084 14.5046,13.6344 15.3444,12.958 C15.9524,12.4678 16.6554,12.1752 17.4192,12.0194 C17.5218,11.9966 17.6244,11.9776 17.7308,11.9624 C17.7878,11.9548 17.8106,11.9282 17.8068,11.875 L17.8068,11.7686 L17.8068,10.1308 C17.8068,9.8268 17.9968,9.5988 18.2818,9.538 C18.3312,9.5266 18.3806,9.5266 18.43,9.5266 C18.8024,9.5266 19.171,9.5228 19.5434,9.5266 C19.9272,9.5304 20.1742,9.7736 20.1742,10.1574 C20.178,10.7198 20.1742,11.2822 20.1742,11.8408 C20.1742,11.9928 20.1742,11.9928 20.3186,12.0232 C20.8658,12.1334 21.3902,12.3158 21.8766,12.6008 C22.762,13.1252 23.313,13.9042 23.6094,14.8808 C23.6436,14.991 23.674,15.1012 23.693,15.2152 C23.7614,15.5534 23.5334,15.8612 23.1876,15.8688 C22.7468,15.8802 22.306,15.8764 21.8652,15.8688 C21.6258,15.865 21.4282,15.7016 21.3484,15.4546 C21.2914,15.2722 21.2192,15.0974 21.1318,14.9264 C20.8772,14.4514 20.4896,14.1398 19.9842,13.9688 C19.532,13.8206 19.0608,13.7864 18.5896,13.8016 C18.202,13.8168 17.822,13.8738 17.461,14.0296 C16.891,14.2728 16.5148,14.6832 16.4122,15.3064 C16.3552,15.656 16.3704,16.0056 16.4882,16.3476 C16.587,16.6402 16.7846,16.8568 17.043,17.0202 C17.366,17.2254 17.7232,17.3394 18.088,17.4344 C18.5896,17.5598 19.1026,17.6282 19.6118,17.7042 C20.4022,17.8258 21.1812,17.9854 21.926,18.2818 C22.3136,18.4376 22.6784,18.6314 23.009,18.8936 C23.4764,19.266 23.8108,19.7334 23.9894,20.3034 C24.2554,21.1546 24.2972,22.0172 24.0578,22.8836 C23.769,23.9248 23.1268,24.7 22.2186,25.2624 C21.6638,25.6082 21.0558,25.8286 20.4174,25.9464 L20.4174,25.9464 Z M27.3676,30.4912 C26.144,31.388 24.8102,32.0644 23.37,32.5318 C23.2636,32.566 23.1572,32.5888 23.047,32.5774 C22.8,32.5546 22.629,32.4026 22.5758,32.1632 C22.5568,32.0834 22.553,32.0036 22.553,31.9238 L22.553,31.008 C22.553,30.4874 22.6974,30.2708 23.18,30.0884 C24.6316,29.5374 25.9312,28.7356 27.0598,27.6716 C28.9484,25.897 30.1492,23.7386 30.6432,21.1888 C30.8446,20.1438 30.9092,19.0874 30.8066,18.031 C30.476,14.5844 28.9446,11.78 26.2238,9.6368 C25.2928,8.9034 24.263,8.3334 23.1496,7.9306 C22.7582,7.79 22.5416,7.4062 22.553,7.068 C22.5644,6.7412 22.5568,6.4144 22.5568,6.0914 C22.5568,5.985 22.5682,5.8786 22.61,5.7836 C22.6974,5.5822 22.8494,5.4682 23.0698,5.453 C23.18,5.4454 23.2902,5.4682 23.3928,5.5024 C24.9774,6.0154 26.4328,6.7716 27.74,7.8014 C30.4532,9.9408 32.1784,12.7034 32.9156,16.0778 C33.1246,17.0392 33.2196,18.0158 33.2196,19.0038 C33.212,23.5562 31.0688,27.7742 27.3676,30.4912 L27.3676,30.4912 Z" id="形状" fill="#2775CA"></path>
            </g>
            <g id="BUSD" transform="translate(21.000000, 21.000000)">
                <path d="M0,10 C0,15.5228475 4.4771525,20 10,20 C15.5228475,20 20,15.5228475 20,10 C20,4.4771525 15.5228475,0 10,0 C4.4771525,0 0,4.4771525 0,10 Z" id="路径" fill="#F0B90B"></path>
                <path d="M14.6316667,8.38166666 L16.25,10 L10,16.25 L8.38166666,14.6316667 L14.6316667,8.38166666 Z M12.3833333,6.13333334 L14.0016667,7.75166666 L7.75166666,14.0016667 L6.13333334,12.3833333 L12.3833333,6.13333334 Z M10,3.75 L11.6183333,5.36833334 L7.66166666,9.32583334 L6.04333334,7.70666666 L10,3.75 Z M5.50333334,8.24666666 L7.1225,9.865 L5.36833334,11.6183333 L3.75,10 L5.50333334,8.24666666 Z" id="形状" fill="#FFFFFF"></path>
            </g>
        </g>
    </g>
</svg>