<?xml version="1.0" encoding="UTF-8"?>
<svg width="41px" height="41px" viewBox="0 0 41 41" version="1.1" xmlns="http://www.w3.org/2000/svg" xmlns:xlink="http://www.w3.org/1999/xlink">
    <title>USDT-BNB</title>
    <g id="页面-1" stroke="none" stroke-width="1" fill="none" fill-rule="evenodd">
        <g id="USDT-BNB">
            <g id="USDT">
                <circle id="椭圆形" fill="#FFFFFF" cx="19" cy="19" r="17.1"></circle>
                <path d="M21.68584,17.20792 L21.68584,20.36496 C21.54904,20.38016 20.82552,20.43944 19.38456,20.43944 C18.18072,20.43944 17.31584,20.38624 17.01032,20.36496 L17.01032,17.21856 C12.3652,17.42376 8.90416001,18.2324 8.90416001,19.1976 C8.90416001,20.1628 12.37128,20.97144 17.01032,21.17664 L17.01032,21.17208 C17.31128,21.18728 18.15488,21.2192 19.3648,21.2192 C20.87416,21.2192 21.55056,21.17664 21.68128,21.17208 C26.30968,20.9608 29.76616,20.15368 29.7768,19.18696 C29.7768,18.22176 26.32032,17.41464 21.68584,17.20792 L21.68584,17.20792 Z" id="路径" fill="#26A17B" fill-rule="nonzero"></path>
                <path d="M19,0 C8.50743998,0 0,8.50136 0,19 C0,29.49864 8.50743998,38 19,38 C29.49256,38 38,29.49256 38,19 C38,8.50743994 29.49256,0 19,0 Z M21.68128,21.93664 L21.68128,30.98824 L17.00576,30.98824 L17.00576,21.93664 C11.75416,21.69344 7.80063999,20.65376 7.80063999,19.40888 C7.80063999,18.164 11.75416,17.12432 17.00576,16.88112 L17.00576,14.0524 L10.53968,14.0524 L10.53968,9.74624002 L28.14128,9.74624002 L28.14128,14.0524 L21.6752,14.0524 L21.6752,16.88112 C26.92072,17.12432 30.8636,18.164 30.86968,19.40888 C30.86968,20.65528 26.9268,21.69496 21.68128,21.93664 L21.68128,21.93664 Z" id="形状" fill="#26A17B" fill-rule="nonzero"></path>
            </g>
            <g id="BNB" transform="translate(21.000000, 21.000000)" fill-rule="nonzero">
                <path d="M12.4151548,0.308078432 C7.05004968,-1.06103369 1.62244607,2.2709282 0.31193077,7.56964605 C-1.05912995,12.9269564 2.22008793,18.3428593 7.58714612,19.7119714 C12.9542043,21.0205379 18.3193094,17.7471686 19.6923232,12.3918113 C21.0614309,7.09309347 17.7236207,1.67719057 12.4151548,0.308078432 Z" id="路径" fill="#F0B90A"></path>
                <path d="M10.2198952,4.49939744 L13.8389486,8.25713172 L12.5538233,9.65163394 L10.1613029,7.16535758 L7.76878237,9.65163394 L6.54224942,8.37822295 L10.2198952,4.49939744 Z M11.6788444,10.5598182 L10.1613029,12.1359572 L8.64376128,10.5598182 L10.1613029,8.98367909 L11.6788444,10.5598182 Z M4.49932988,10.4992726 L5.6672705,9.28640717 L6.89380345,10.5598182 L5.72586283,11.7726836 L4.49932988,10.4992726 Z M10.2198952,16.4991477 L6.60084176,12.7414134 L7.76878237,11.528548 L9.98747892,13.8312344 L10.1632559,14.0128713 L12.5557764,11.528548 L13.8409017,12.8625046 L10.2198952,16.4991477 Z M14.6572883,11.8937748 L13.372163,10.5598182 L14.7139276,9.16531594 L15.9990528,10.4992726 L14.6572883,11.8937748 Z" id="形状" fill="#FFFFFF"></path>
            </g>
        </g>
    </g>
</svg>