<?xml version="1.0" encoding="UTF-8"?>
<svg width="41px" height="41px" viewBox="0 0 41 41" version="1.1" xmlns="http://www.w3.org/2000/svg" xmlns:xlink="http://www.w3.org/1999/xlink">
    <title>USDT- BUSD</title>
    <g id="页面-1" stroke="none" stroke-width="1" fill="none" fill-rule="evenodd">
        <g id="USDT--BUSD">
            <g id="USDT">
                <circle id="椭圆形" fill="#FFFFFF" cx="19" cy="19" r="17.1"></circle>
                <path d="M21.68584,17.20792 L21.68584,20.36496 C21.54904,20.38016 20.82552,20.43944 19.38456,20.43944 C18.18072,20.43944 17.31584,20.38624 17.01032,20.36496 L17.01032,17.21856 C12.3652,17.42376 8.90416001,18.2324 8.90416001,19.1976 C8.90416001,20.1628 12.37128,20.97144 17.01032,21.17664 L17.01032,21.17208 C17.31128,21.18728 18.15488,21.2192 19.3648,21.2192 C20.87416,21.2192 21.55056,21.17664 21.68128,21.17208 C26.30968,20.9608 29.76616,20.15368 29.7768,19.18696 C29.7768,18.22176 26.32032,17.41464 21.68584,17.20792 L21.68584,17.20792 Z" id="路径" fill="#26A17B" fill-rule="nonzero"></path>
                <path d="M19,0 C8.50743998,0 0,8.50136 0,19 C0,29.49864 8.50743998,38 19,38 C29.49256,38 38,29.49256 38,19 C38,8.50743994 29.49256,0 19,0 Z M21.68128,21.93664 L21.68128,30.98824 L17.00576,30.98824 L17.00576,21.93664 C11.75416,21.69344 7.80063999,20.65376 7.80063999,19.40888 C7.80063999,18.164 11.75416,17.12432 17.00576,16.88112 L17.00576,14.0524 L10.53968,14.0524 L10.53968,9.74624002 L28.14128,9.74624002 L28.14128,14.0524 L21.6752,14.0524 L21.6752,16.88112 C26.92072,17.12432 30.8636,18.164 30.86968,19.40888 C30.86968,20.65528 26.9268,21.69496 21.68128,21.93664 L21.68128,21.93664 Z" id="形状" fill="#26A17B" fill-rule="nonzero"></path>
            </g>
            <g id="BUSD" transform="translate(21.000000, 21.000000)" fill-rule="nonzero">
                <path d="M0,10 C0,15.5228475 4.4771525,20 10,20 C15.5228475,20 20,15.5228475 20,10 C20,4.4771525 15.5228475,0 10,0 C4.4771525,0 0,4.4771525 0,10 Z" id="路径" fill="#F0B90B"></path>
                <path d="M14.6316667,8.38166666 L16.25,10 L10,16.25 L8.38166666,14.6316667 L14.6316667,8.38166666 Z M12.3833333,6.13333334 L14.0016667,7.75166666 L7.75166666,14.0016667 L6.13333334,12.3833333 L12.3833333,6.13333334 Z M10,3.75 L11.6183333,5.36833334 L7.66166666,9.32583334 L6.04333334,7.70666666 L10,3.75 Z M5.50333334,8.24666666 L7.1225,9.865 L5.36833334,11.6183333 L3.75,10 L5.50333334,8.24666666 Z" id="形状" fill="#FFFFFF"></path>
            </g>
        </g>
    </g>
</svg>