<?xml version="1.0" encoding="UTF-8"?>
<svg width="200px" height="200px" viewBox="0 0 200 200" version="1.1" xmlns="http://www.w3.org/2000/svg" xmlns:xlink="http://www.w3.org/1999/xlink">
    <title>fcat_coin2</title>
    <defs>
        <circle id="path-1" cx="95.5782313" cy="95.5782313" r="95.5782313"></circle>
        <circle id="path-3" cx="100" cy="100" r="100"></circle>
    </defs>
    <g id="页面-1" stroke="none" stroke-width="1" fill="none" fill-rule="evenodd" opacity="0.157761347">
        <g id="首页" transform="translate(-620.000000, -406.000000)">
            <g id="fcat_coin2" transform="translate(620.000000, 406.000000)">
                <g id="椭圆形备份-15" transform="translate(4.421769, 4.761905)">
                    <mask id="mask-2" fill="white">
                        <use xlink:href="#path-1"></use>
                    </mask>
                    <use id="蒙版" fill="#B84949" xlink:href="#path-1"></use>
                    <circle stroke="#291818" stroke-width="6.41770463" fill="#FFFFFF" mask="url(#mask-2)" cx="95.5782313" cy="172.996102" r="60.3142794"></circle>
                </g>
                <mask id="mask-4" fill="white">
                    <use xlink:href="#path-3"></use>
                </mask>
                <circle stroke="#291818" stroke-width="6.41770463" cx="100" cy="100" r="96.7911477"></circle>
                <path d="M65.0390625,136.328125 C65.0390625,143.555289 80.6916074,149.414062 100,149.414062 C119.308393,149.414062 134.960937,143.555289 134.960937,136.328125" id="路径" stroke="#B84949" stroke-width="9.98309609" stroke-linecap="round" mask="url(#mask-4)"></path>
                <g id="编组-10" mask="url(#mask-4)">
                    <g transform="translate(49.414062, 43.359375)">
                        <path d="M94.5269798,2.4566167 C96.1573251,4.08518264 97.0499796,6.36806874 97.0419628,8.88406645 L97.0112387,9.35672033 L94.5326409,29.0606096 C98.5148612,35.8700365 100.78125,43.6991579 100.78125,52.028111 C100.78125,78.3065175 78.2205987,99.609375 50.390625,99.609375 C22.5606513,99.609375 0,78.3065175 0,52.028111 C0,43.697124 2.26749585,35.8662128 6.25152679,29.0556212 L3.73928709,8.88406645 C3.73127024,6.36646107 4.62553889,4.0867903 6.25427006,2.4566167 C8.51415474,0.197845596 12.0185902,-0.552934552 15.4536149,0.51937885 L33.6106922,7.14866041 C38.8596123,5.39886852 44.507376,4.4468471 50.390625,4.4468471 C56.2734994,4.4468471 61.9209186,5.3987473 67.1695552,7.14832621 L85.1549152,0.577254835 C89.1516826,-0.68315552 92.2622525,0.199453262 94.5269798,2.4566167 Z" id="形状结合" stroke="#291818" stroke-width="6.41770463" fill="#FFFFFF" fill-rule="nonzero" stroke-linejoin="round"></path>
                        <path d="M38.7229062,49.0962242 C37.3734782,46.1124297 33.1430843,43.9348493 28.1332818,43.9348493 C23.1194091,43.9348493 18.8862119,46.1159695 17.5403741,49.1034983" id="路径" stroke="#291818" stroke-width="5.34808719" fill="none" stroke-linecap="round" stroke-linejoin="round"></path>
                        <path d="M83.2375926,49.0962242 C81.8881646,46.1124297 77.6577707,43.9348493 72.6479682,43.9348493 C67.6340955,43.9348493 63.4008983,46.1159695 62.0550605,49.1034983" id="路径备份-4" stroke="#291818" stroke-width="5.34808719" fill="none" stroke-linecap="round" stroke-linejoin="round"></path>
                        <path d="M83.9508157,13.0785113 L84.0957585,13.0955594 C84.5732026,13.4602219 84.6389455,13.6944273 84.6570326,13.9390354 L84.6570326,13.9390354 L84.3782637,16.2094675 C83.4805902,15.3653277 82.5315688,14.5764206 81.536508,13.8480325 L81.536508,13.8480325 L83.3107465,13.1908334 C83.5981441,13.1025132 83.8590613,13.0474398 84.0957585,13.0955594 Z" id="路径" stroke="#B84949" stroke-width="7.30905249" fill="none" fill-rule="nonzero"></path>
                        <path d="M16.0188824,13.2712235 C16.5706611,13.0594887 16.8070722,13.0803574 17.0422418,13.1466694 L17.0422418,13.1466694 L18.887388,13.8297358 C17.8928924,14.5578222 16.9443895,15.3463591 16.0471791,16.1900688 L16.0471791,16.1900688 L15.7681587,13.9197207 C15.7865976,13.6737025 15.8535124,13.4390258 16.0188824,13.2712235 Z" id="路径" stroke="#B84949" stroke-width="7.30905249" fill="none" fill-rule="nonzero"></path>
                        <path d="M50.4042174,64.1912759 C50.7878892,64.1348635 51.1930816,64.224817 51.5288545,64.4745075 L51.5288545,64.4745075 L55.5759301,69.8093663 L45.67336,69.8093663 L49.4087038,64.7862394 C49.6583943,64.4504665 50.0205455,64.2476882 50.4042174,64.1912759 Z" id="三角形" stroke="#291818" stroke-width="5.52635676" fill="none" transform="translate(50.624645, 65.546526) scale(1, -1) translate(-50.624645, -65.546526) "></path>
                        <path d="M34.8995141,68.6593192 C34.8995141,72.9817487 38.4071772,76.4857701 42.7340989,76.4857701 C47.0610206,76.4857701 50.5686837,72.9817487 50.5686837,68.6593192" id="路径" stroke="#291818" stroke-width="4.27846975" fill="none" stroke-linecap="round"></path>
                        <path d="M50.5686837,68.6593192 C50.5686837,72.9817487 54.0763468,76.4857701 58.4032686,76.4857701 C62.7301903,76.4857701 66.2378534,72.9817487 66.2378534,68.6593192" id="路径" stroke="#291818" stroke-width="4.27846975" fill="none" stroke-linecap="round"></path>
                    </g>
                </g>
                <g id="编组" mask="url(#mask-4)" fill-rule="nonzero">
                    <g transform="translate(87.755102, 141.496599)" id="路径">
                        <path d="M12.4129373,20.2887816 C17.9834975,20.2887816 22.4993288,15.7469831 22.4993288,10.1443908 C22.4993288,4.54179846 17.9834975,0 12.4129373,0 C6.84237706,0 2.32654574,4.54179846 2.32654574,10.1443908 C2.32654574,15.7469831 6.84237706,20.2887816 12.4129373,20.2887816 Z" stroke="#FFDC69" stroke-width="3.578125" fill="#FFDC69"></path>
                        <path d="M13.8972918,18.1034892 L13.8972918,22.4400499 C13.4355183,22.4859722 12.9666541,22.3398288 12.4923835,22.3398287 C12.1762621,22.3398287 11.7079594,22.3732358 11.0874752,22.4400499 L11.0874752,18.1034892 C10.5484143,17.6857813 10.2012422,17.0348483 10.2012422,16.3036172 C10.2012422,15.0451172 11.2268935,14.0251309 12.4923835,14.0251309 C13.7578735,14.0251309 14.7835248,15.0451171 14.7835248,16.3036172 C14.7835248,17.0348483 14.436264,17.6856933 13.8972918,18.1034892 Z" stroke="none" fill="#FFFFFF"></path>
                        <path d="M23.9376688,11.8189249 L1.23239923,11.8189249 C0.551736074,11.8189249 0,11.2106535 0,10.4602442 L0,9.77624497 C0,9.02583569 0.55173611,8.41756433 1.23239923,8.41756433 L23.9376688,8.41756433 C24.618332,8.41756433 25.170068,9.02591466 25.170068,9.77624497 L25.170068,10.4602442 C25.170068,11.2106535 24.6183319,11.8189249 23.9376688,11.8189249 Z" stroke="none" fill="#FEB102"></path>
                    </g>
                </g>
                <g id="编组-9" mask="url(#mask-4)" fill="#FFFFFF" stroke="#291818" stroke-width="6.41770463">
                    <g transform="translate(143.945312, 122.265625) rotate(18.000000) translate(-143.945312, -122.265625) translate(124.218750, 93.945312)">
                        <rect id="矩形" fill-rule="nonzero" stroke-linejoin="round" x="7.64182151" y="2.84984277" width="24.0676366" height="53.7907822" rx="12.0338183"></rect>
                        <path d="M19.7265625,3.20885231 C24.4448719,3.20885231 28.7366346,4.50361319 31.8356102,6.67216277 C34.4438881,8.49734012 36.2442727,10.962223 36.2442727,13.8039259 C36.2442727,15.236559 35.7757671,16.5876764 34.974868,17.8053921 C34.8474431,17.9991335 34.3212547,17.8384865 34.0705383,17.9259783 L34.0705383,17.9259783 L33.524874,18.1157132 C32.3190169,18.5377418 31.2187387,19.0399602 30.5236398,19.6047226 C29.761268,20.2241437 29.1804412,20.9748582 28.6370496,21.7637147 C28.1596198,22.4545364 27.7783405,23.1311598 26.4487648,23.1217387 C25.3583098,23.114012 24.9409988,22.6183156 24.5504483,22.2239506 C23.2395584,20.9002572 21.9823614,19.9461202 19.7265625,19.9461202 C17.345733,19.9461202 16.1601511,20.9715046 14.9421843,22.4009114 C14.6413589,22.7539603 14.3033397,23.1584221 13.3195878,23.1517389 C12.8648179,23.1486494 12.5111965,23.1037325 12.2556134,22.9339562 C11.7558922,22.6020062 11.5602086,22.0458743 11.3069991,21.5999935 C10.6687864,20.476154 9.99311131,19.4893317 9.1016456,18.8110861 C8.10084863,18.049659 6.59279242,17.6513037 5.02177224,17.4260219 L5.02177224,17.4260219 L4.95977925,17.4888506 C4.82828082,17.6187468 4.53439191,17.8909135 4.47379972,17.7986085 C3.67561108,16.5826631 3.20885231,15.233887 3.20885231,13.8039259 C3.20885231,10.962223 5.00923689,8.49734012 7.61751481,6.67216277 C10.7164904,4.50361319 15.0082531,3.20885231 19.7265625,3.20885231 Z" id="椭圆形" fill-rule="evenodd"></path>
                    </g>
                </g>
                <path d="M59.6510295,107.318707 C56.5120934,107.794898 53.5642476,108.032993 50.8074921,108.032993" id="路径-6" stroke="#291818" stroke-width="5.11160714" stroke-linecap="round" stroke-linejoin="round" mask="url(#mask-4)"></path>
                <path d="M65.5402867,114.497751 C61.6120019,114.973941 57.6437479,115.212037 53.6355247,115.212037" id="路径-6备份" stroke="#291818" stroke-width="5.11160714" stroke-linecap="round" stroke-linejoin="round" mask="url(#mask-4)"></path>
                <path d="M71.1338618,122.750953 C67.1375386,122.79601 63.1692847,122.559719 59.2290999,122.042079" id="路径-6备份-2" stroke="#291818" stroke-width="5.11160714" stroke-linecap="round" stroke-linejoin="round" mask="url(#mask-4)" transform="translate(65.181481, 122.399222) scale(-1, 1) translate(-65.181481, -122.399222) "></path>
            </g>
        </g>
    </g>
</svg>