<?xml version="1.0" encoding="UTF-8"?>
<svg width="64px" height="64px" viewBox="0 0 64 64" version="1.1" xmlns="http://www.w3.org/2000/svg" xmlns:xlink="http://www.w3.org/1999/xlink">
    <title>fcat_coin</title>
    <defs>
        <circle id="path-1" cx="30.585034" cy="30.585034" r="30.585034"></circle>
        <circle id="path-3" cx="32" cy="32" r="32"></circle>
    </defs>
    <g id="页面-1" stroke="none" stroke-width="1" fill="none" fill-rule="evenodd">
        <g id="首页" transform="translate(-288.000000, -480.000000)">
            <g id="fcat_coin" transform="translate(288.000000, 480.000000)">
                <g id="椭圆形备份-15" transform="translate(1.414966, 1.523810)">
                    <mask id="mask-2" fill="white">
                        <use xlink:href="#path-1"></use>
                    </mask>
                    <use id="蒙版" fill="#B84949" xlink:href="#path-1"></use>
                    <circle stroke="#291818" stroke-width="2.05366548" fill="#FFFFFF" mask="url(#mask-2)" cx="30.585034" cy="55.3587528" r="19.3005694"></circle>
                </g>
                <mask id="mask-4" fill="white">
                    <use xlink:href="#path-3"></use>
                </mask>
                <circle stroke="#291818" stroke-width="2.05366548" cx="32" cy="32" r="30.9731673"></circle>
                <path d="M20.8125,43.625 C20.8125,45.9376924 25.8213144,47.8125 32,47.8125 C38.1786856,47.8125 43.1875,45.9376924 43.1875,43.625" id="路径" stroke="#B84949" stroke-width="3.19459075" stroke-linecap="round" mask="url(#mask-4)"></path>
                <g id="编组-10" mask="url(#mask-4)">
                    <g transform="translate(15.812500, 13.875000)">
                        <path d="M30.2486335,0.786117345 C30.770344,1.30725844 31.0559935,2.037782 31.0534281,2.84290126 L31.0435964,2.99415051 L30.2507092,9.29984675 C31.5248558,11.4787579 32.25,13.9839147 32.25,16.6489955 C32.25,25.0580856 25.0305916,31.875 16.125,31.875 C7.21940841,31.875 0,25.0580856 0,16.6489955 C0,13.983104 0.72558542,11.4772339 2.00045365,9.29785848 L1.19657187,2.84290126 C1.19400648,2.03726754 1.48017244,1.3077729 2.00136642,0.786117345 C2.72452952,0.0633105907 3.84594886,-0.176939057 4.94515677,0.166201232 L10.7555073,2.28754273 C12.4351375,1.72762755 14.2423924,1.42299107 16.125,1.42299107 C18.0072331,1.42299107 19.8141435,1.72750636 21.4934903,2.28720861 L27.2495728,0.184721547 C28.5285384,-0.218609766 29.5239208,0.0638250439 30.2486335,0.786117345 Z" id="形状结合" stroke="#291818" stroke-width="2.05366548" fill="#FFFFFF" fill-rule="nonzero" stroke-linejoin="round"></path>
                        <path d="M12.39133,15.7107917 C11.959513,14.7559775 10.605787,14.0591518 9.00265018,14.0591518 C7.39821093,14.0591518 6.04358782,14.7571102 5.61291971,15.7131195" id="路径" stroke="#291818" stroke-width="1.7113879" fill="none" stroke-linecap="round" stroke-linejoin="round"></path>
                        <path d="M26.6360296,15.7107917 C26.2042127,14.7559775 24.8504866,14.0591518 23.2473498,14.0591518 C21.6429106,14.0591518 20.2882875,14.7571102 19.8576194,15.7131195" id="路径备份-4" stroke="#291818" stroke-width="1.7113879" fill="none" stroke-linecap="round" stroke-linejoin="round"></path>
                        <path d="M26.8322894,4.185359 L26.9106427,4.19057902 C27.0634248,4.307271 27.0844626,4.38221672 27.0902504,4.46049133 L27.0902504,4.46049133 L27.0010444,5.18702961 C26.7137889,4.91690487 26.410102,4.66445459 26.0916826,4.4313704 L26.0916826,4.4313704 L26.6594389,4.2210667 C26.7514061,4.19280422 26.8348996,4.17518074 26.9106427,4.19057902 Z" id="路径" stroke="#B84949" stroke-width="2.3388968" fill="none" fill-rule="nonzero"></path>
                        <path d="M5.23232248,4.19404249 L6.04396415,4.42551545 C5.72572556,4.65850311 5.42220463,4.91083492 5.13509731,5.18082203 L5.13509731,5.18082203 L5.04581079,4.45431062 C5.05171123,4.37558479 5.07312397,4.30048825 5.12604236,4.24679153 C5.15466868,4.21778436 5.19289955,4.20245894 5.23232248,4.19404249 L5.23232248,4.19404249 Z" id="路径" stroke="#B84949" stroke-width="2.3388968" fill="none" fill-rule="nonzero"></path>
                        <path d="M16.1293496,20.5412083 L17.6844289,22.2209129 L14.7560793,22.3235758 L15.8216417,20.7175325 C15.9009938,20.6184778 16.0120274,20.5584585 16.1293496,20.5412083 L16.1293496,20.5412083 Z" id="三角形" stroke="#291818" stroke-width="1.76843416" fill="none" transform="translate(16.199886, 20.974888) scale(1, -1) translate(-16.199886, -20.974888) "></path>
                        <path d="M11.1678445,21.9709821 C11.1678445,23.3541596 12.2902967,24.4754464 13.6749117,24.4754464 C15.0595266,24.4754464 16.1819788,23.3541596 16.1819788,21.9709821" id="路径" stroke="#291818" stroke-width="1.36911032" fill="none" stroke-linecap="round"></path>
                        <path d="M16.1819788,21.9709821 C16.1819788,23.3541596 17.304431,24.4754464 18.6890459,24.4754464 C20.0736609,24.4754464 21.1961131,23.3541596 21.1961131,21.9709821" id="路径" stroke="#291818" stroke-width="1.36911032" fill="none" stroke-linecap="round"></path>
                    </g>
                </g>
                <g id="编组" mask="url(#mask-4)" fill-rule="nonzero">
                    <g transform="translate(28.081633, 45.278912)" id="路径">
                        <path d="M3.97213993,6.49241011 C5.7547192,6.49241011 7.19978522,5.0390346 7.19978522,3.24620506 C7.19978522,1.45337551 5.7547192,0 3.97213993,0 C2.18956066,0 0.744494638,1.45337551 0.744494638,3.24620506 C0.744494638,5.0390346 2.18956066,6.49241011 3.97213993,6.49241011 Z" stroke="#FFDC69" stroke-width="1.145" fill="#FFDC69"></path>
                        <path d="M4.44713338,5.79311653 L4.44713338,7.18081595 C4.29936584,7.1955111 4.14932933,7.14874521 3.99756272,7.14874519 C3.89640389,7.14874519 3.74654699,7.15943545 3.54799205,7.18081595 L3.54799205,5.79311653 C3.37549259,5.65945003 3.2643975,5.45115144 3.2643975,5.21715752 C3.2643975,4.81443749 3.59260593,4.48804189 3.99756272,4.48804189 C4.40251951,4.48804189 4.73072793,4.81443748 4.73072793,5.21715752 C4.73072793,5.45115145 4.61960447,5.65942185 4.44713338,5.79311653 Z" stroke="none" fill="#FFFFFF"></path>
                        <path d="M7.66005402,3.78205596 L0.394367753,3.78205596 C0.176555544,3.78205596 0,3.58740913 0,3.34727815 L0,3.12839839 C0,2.88826742 0.176555555,2.69362059 0.394367753,2.69362059 L7.66005402,2.69362059 C7.87786623,2.69362059 8.05442177,2.88829269 8.05442177,3.12839839 L8.05442177,3.34727815 C8.05442177,3.58740913 7.87786621,3.78205596 7.66005402,3.78205596 Z" stroke="none" fill="#FEB102"></path>
                    </g>
                </g>
                <g id="编组-9" mask="url(#mask-4)" fill="#FFFFFF" stroke="#291818" stroke-width="2.05366548">
                    <g transform="translate(46.062500, 39.125000) rotate(18.000000) translate(-46.062500, -39.125000) translate(39.750000, 30.062500)">
                        <rect id="矩形" fill-rule="nonzero" stroke-linejoin="round" x="2.44538288" y="0.911949686" width="7.70164371" height="17.2130503" rx="3.85082186"></rect>
                        <path d="M6.3125,1.02683274 C7.822359,1.02683274 9.19572309,1.44115622 10.1873953,2.13509209 C11.0220442,2.71914884 11.5981673,3.50791136 11.5981673,4.41725629 C11.5981673,4.87569889 11.4482455,5.30805646 11.1919578,5.69772547 C10.228239,5.97371906 9.95293716,6.12289759 9.76756473,6.27351125 C9.51323032,6.48015596 9.3228721,6.73304357 9.1406647,6.99809736 C9.01233591,7.18477492 8.89461189,7.40201041 8.46360472,7.39895638 C8.17407694,7.39690485 8.03717805,7.29125112 7.9283414,7.18398922 C7.28442477,6.54716006 6.90434849,6.38275845 6.3125,6.38275845 C5.55063455,6.38275845 5.17124836,6.71088147 4.78149897,7.16829164 C4.68523485,7.28126729 4.57706871,7.41069507 4.2622681,7.40855646 C3.76188549,7.23264198 3.69926674,7.05467977 3.61823972,6.91199793 C3.41401166,6.55236928 3.19779562,6.23658616 2.91252659,6.01954756 C2.59227156,5.77589089 2.10969358,5.64841719 1.60696712,5.57632702 C1.17619554,5.3064522 1.02683274,4.87484383 1.02683274,4.41725629 C1.02683274,3.50791136 1.60295581,2.71914884 2.43760474,2.13509209 C3.42927691,1.44115622 4.802641,1.02683274 6.3125,1.02683274 Z" id="椭圆形" fill-rule="evenodd"></path>
                    </g>
                </g>
                <path d="M19.0883295,34.3419864 C18.0838699,34.4943673 17.1405592,34.5705578 16.2583975,34.5705578" id="路径-6" stroke="#291818" stroke-width="1.63571429" stroke-linecap="round" stroke-linejoin="round" mask="url(#mask-4)"></path>
                <path d="M20.9728917,36.6392803 C19.7158406,36.7916612 18.4459993,36.8678517 17.1633679,36.8678517" id="路径-6备份" stroke="#291818" stroke-width="1.63571429" stroke-linecap="round" stroke-linejoin="round" mask="url(#mask-4)"></path>
                <path d="M22.7628358,39.280305 C21.4840124,39.2947234 20.2141711,39.2191101 18.953312,39.0534654" id="路径-6备份-2" stroke="#291818" stroke-width="1.63571429" stroke-linecap="round" stroke-linejoin="round" mask="url(#mask-4)" transform="translate(20.858074, 39.167751) scale(-1, 1) translate(-20.858074, -39.167751) "></path>
            </g>
        </g>
    </g>
</svg>