<?xml version="1.0" encoding="UTF-8"?>
<svg width="187px" height="162px" viewBox="0 0 187 162" version="1.1" xmlns="http://www.w3.org/2000/svg" xmlns:xlink="http://www.w3.org/1999/xlink">
    <title>路径</title>
    <g id="页面-1" stroke="none" stroke-width="1" fill="none" fill-rule="evenodd">
        <g id="首页" transform="translate(-271.000000, -197.000000)" fill="#B84949" fill-rule="nonzero">
            <path d="M413.012848,213.667383 C413.012848,213.667383 402.054449,228.167383 399.700348,236.583984 C397.346246,245.000586 388.533746,246.958984 384.033746,251.458984 C379.533746,255.958984 336.825348,261.250586 324.304645,330.000586 C324.304645,330.000586 324.304645,339.604688 312.554645,342.333984 C300.804645,345.083984 287.471246,348.292383 285.138043,345.271484 C282.971441,342.479883 300.013043,336.063086 300.013043,336.063086 C300.013043,336.063086 308.429645,330.583984 308.429645,328.417188 C308.429645,326.271289 292.950543,332.333789 292.950543,332.333789 C292.950543,332.333789 262.783941,342.521289 273.179645,353.500391 C283.554645,364.458789 321.950543,353.500391 329.200543,350.375391 C336.450543,347.250391 347.013043,345.666992 351.929645,349.979492 C356.825543,354.291992 360.158746,356.250391 376.992145,355.271094 C393.825543,354.291992 407.929645,354.291992 407.929645,354.291992 C407.929645,354.291992 414.388043,348.021094 402.450543,345.083594 L391.492145,344.291992 C391.492145,344.291992 382.492145,344.479492 389.721246,334.896094 C396.971246,325.291992 396.575348,319.041992 396.575348,319.041992 C396.575348,319.041992 401.075348,318.854492 402.637848,326.291992 C404.200348,333.729492 406.554449,348.625391 419.283746,349.791992 C419.283746,349.791992 422.033746,358.791992 436.117145,353.896094 C436.117145,353.896094 443.367145,349.979492 434.346246,345.666992 L431.012848,345.083594 C431.012848,345.083594 416.908746,318.646094 417.491949,310.812695 C417.491949,310.812695 415.929449,304.541797 421.221051,300.041797 C426.512652,295.541797 440.616949,277.916797 432.387652,246.187695 C432.387652,246.187695 430.616754,242.271094 442.575152,240.896094 C454.512652,239.521094 456.096051,233.250195 457.658551,225.625195 C457.658551,225.625195 457.075152,223.083594 454.325152,220.916797 L451.783551,217.958398 C451.783551,217.958398 448.262652,206.020898 432.012652,207.1875 L430.637652,205.416602 L428.679254,197 C428.679254,197 424.179254,198.166602 423.970856,203.0625 L420.845856,199.145898 C420.845856,199.166797 413.595856,202.6875 413.012457,213.666797 L413.012848,213.667383 Z" id="路径"></path>
        </g>
    </g>
</svg>