<?xml version="1.0" encoding="UTF-8"?>
<svg width="139px" height="159px" viewBox="0 0 139 159" version="1.1" xmlns="http://www.w3.org/2000/svg" xmlns:xlink="http://www.w3.org/1999/xlink">
    <title>猫爪</title>
    <g id="页面-1" stroke="none" stroke-width="1" fill="none" fill-rule="evenodd">
        <g id="首页" transform="translate(-1206.000000, -208.000000)" fill="#B84949" fill-rule="nonzero">
            <g id="猫爪" transform="translate(1206.522112, 208.406374)">
                <path d="M73.5281528,37.2873508 C68.651147,27.8729183 64.2225761,34.2996337 64.2225761,34.2996337 C63.7180829,35.1451332 63.0403809,34.3559774 63.0403809,34.3559774 C61.3541897,32.1010098 59.2179166,32.1573848 59.2179166,32.1573848 C54.6608842,32.1009786 53.8521102,36.8927885 53.8521102,36.8927885 C48.0696891,37.0619134 48.0781103,44.0247534 48.0781103,44.0247534 C47.5736482,48.2815324 50.1521724,51.7265306 50.1521724,51.7265306 C53.2353763,62.8396184 63.0403809,62.1484312 63.0403809,62.1484312 C74.583844,61.3027129 75.3219858,52.0855929 75.3219858,52.0855929 C77.8446382,48.505876 78.0126886,44.6160969 78.0126886,44.6160969 C77.6203741,37.9639129 73.5280906,37.2874133 73.5280906,37.2874133 L73.5281528,37.2873508 Z M67.7396721,34.7640397 C69.109619,34.7640397 70.2202498,36.2540076 70.2202498,38.0923816 C70.2202498,39.9302244 69.109619,41.4207236 67.7396721,41.4207236 C66.369601,41.4207236 65.2590634,39.9301931 65.2590634,38.0923816 C65.2592188,36.2540389 66.3697874,34.7640397 67.7396721,34.7640397 Z M59.2743789,34.7640397 C60.6445121,34.7640397 61.755143,36.2540076 61.755143,38.0923816 C61.755143,39.9302244 60.6445743,41.4207236 59.2743789,41.4207236 C57.9049292,41.4207236 56.794547,39.9301931 56.794547,38.0923816 C56.794547,36.2540389 57.9049292,34.7640397 59.2743789,34.7640397 L59.2743789,34.7640397 Z M53.247806,46.8321894 C51.8776727,46.8321894 50.7672905,45.3421902 50.7672905,43.50391 C50.7672905,41.6655672 51.8776727,40.1754743 53.247806,40.1754743 C54.6176907,40.1754743 55.7282594,41.665536 55.7282594,43.50391 C55.7282594,45.3422215 54.6176907,46.8321894 53.247806,46.8321894 L53.247806,46.8321894 Z M70.1098113,57.7326211 C68.8014229,58.5302457 67.0530207,58.2653083 65.4182887,57.2054651 C64.400384,56.7572779 62.7100909,56.3011844 60.9640504,57.0808402 C60.6422748,57.3019338 60.3161488,57.4930587 59.9886555,57.6507149 C58.5962107,58.322777 57.1858672,58.4028082 56.0858949,57.7325899 C53.8811648,56.3879656 53.7589491,52.5371864 55.8129993,49.1309695 C56.3521405,48.2369074 56.9873948,47.4622829 57.6717157,46.8303457 L57.6778995,46.8247832 L57.6795775,46.8224394 L57.6824985,46.8206582 L57.6841455,46.8190019 C58.7093838,45.87544 59.8429164,45.251284 60.9236537,45.0258779 C62.2836878,44.6063156 63.9748198,44.462097 65.8130271,45.1701591 C67.4604063,45.7051275 69.166858,47.1138143 70.3828933,49.1309382 C72.4368192,52.5372176 72.3145102,56.3879968 70.1098113,57.7326211 L70.1098113,57.7326211 Z M73.289408,46.8305019 C71.9199273,46.8305019 70.8088925,45.3403777 70.8088925,43.5020662 C70.8088925,41.6637547 71.9198962,40.1738493 73.289408,40.1738493 C74.6593548,40.1738493 75.7699235,41.663786 75.7699235,43.5021287 C75.7699235,45.3404715 74.6593548,46.8305019 73.289408,46.8305019 L73.289408,46.8305019 Z" id="形状" transform="translate(63.012689, 47.156891) rotate(10.000000) translate(-63.012689, -47.156891) "></path>
                <path d="M132.326943,6.00583925 C128.425339,-1.52570671 124.882482,3.61566553 124.882482,3.61566553 C124.478887,4.29206517 123.936726,3.66074051 123.936726,3.66074051 C122.587773,1.85676648 120.878754,1.90186645 120.878754,1.90186645 C117.233128,1.85674148 116.586109,5.69018942 116.586109,5.69018942 C111.960172,5.82548935 111.966909,11.3957614 111.966909,11.3957614 C111.56334,14.8011845 113.626159,17.5571831 113.626159,17.5571831 C116.092722,26.4476533 123.936726,25.8947036 123.936726,25.8947036 C133.171496,25.218129 133.76201,17.8444329 133.76201,17.8444329 C135.780132,14.9806594 135.914572,11.8688361 135.914572,11.8688361 C135.60072,6.54708896 132.326894,6.00588925 132.326894,6.00588925 L132.326943,6.00583925 Z M127.696159,3.98719034 C128.792116,3.98719034 129.680621,5.1791647 129.680621,6.64986391 C129.680621,8.12013812 128.792116,9.31253748 127.696159,9.31253748 C126.600102,9.31253748 125.711672,8.12011312 125.711672,6.64986391 C125.711796,5.1791897 126.600251,3.98719034 127.696159,3.98719034 Z M120.923924,3.98719034 C122.020031,3.98719034 122.908536,5.1791647 122.908536,6.64986391 C122.908536,8.12013812 122.020081,9.31253748 120.923924,9.31253748 C119.828365,9.31253748 118.940059,8.12011312 118.940059,6.64986391 C118.940059,5.1791897 119.828365,3.98719034 120.923924,3.98719034 L120.923924,3.98719034 Z M116.102666,13.6417102 C115.006559,13.6417102 114.118254,12.4497108 114.118254,10.9790866 C114.118254,9.50841238 115.006559,8.31633802 116.102666,8.31633802 C117.198574,8.31633802 118.087029,9.50838738 118.087029,10.9790866 C118.087029,12.4497358 117.198574,13.6417102 116.102666,13.6417102 L116.102666,13.6417102 Z M129.59227,22.3620555 C128.545559,23.0001552 127.146838,22.7882053 125.839052,21.9403307 C125.024728,21.5817809 123.672494,21.2169061 122.275661,21.8406308 C122.018241,22.0175057 121.75734,22.1704056 121.495346,22.2965305 C120.38139,22.8341802 119.253115,22.8982052 118.373137,22.3620305 C116.609353,21.2863311 116.51158,18.2057077 118.154821,15.4807342 C118.586134,14.7654846 119.094337,14.1457849 119.641794,13.6402352 L119.646741,13.6357852 L119.648083,13.6339102 L119.65042,13.6324852 L119.651738,13.6311602 C120.471928,12.8763106 121.378754,12.3769858 122.243344,12.1966609 C123.331371,11.8610111 124.684277,11.7456362 126.154843,12.3120859 C127.472746,12.7400606 128.837908,13.86701 129.810736,15.4807092 C131.453876,18.2057327 131.356029,21.2863561 129.59227,22.3620555 L129.59227,22.3620555 Z M132.135948,13.6403602 C131.040363,13.6403602 130.151535,12.4482608 130.151535,10.9776116 C130.151535,9.50696238 131.040338,8.31503802 132.135948,8.31503802 C133.231905,8.31503802 134.12036,9.50698738 134.12036,10.9776616 C134.12036,12.4483358 133.231905,13.6403602 132.135948,13.6403602 L132.135948,13.6403602 Z" id="形状" transform="translate(123.914572, 13.901471) rotate(10.000000) translate(-123.914572, -13.901471) "></path>
                <path d="M116.762334,90.5448738 C110.259659,79.2475548 104.354898,86.9596132 104.354898,86.9596132 C103.682241,87.9742127 102.778638,87.0272257 102.778638,87.0272257 C100.530383,84.3212646 97.6820188,84.3889146 97.6820188,84.3889146 C91.6059755,84.3212271 90.5276103,90.071399 90.5276103,90.071399 C82.8177154,90.2743489 82.8289437,98.629757 82.8289437,98.629757 C82.1563275,103.737892 85.5943598,107.87189 85.5943598,107.87189 C89.7052983,121.207595 102.778638,120.37817 102.778638,120.37817 C118.169922,119.363308 119.154111,108.302764 119.154111,108.302764 C122.517648,104.007104 122.741715,99.3393691 122.741715,99.3393691 C122.218629,91.3567484 116.762251,90.5449488 116.762251,90.5449488 L116.762334,90.5448738 Z M109.044359,87.5169004 C110.870955,87.5169004 112.351796,89.304862 112.351796,91.5109108 C112.351796,93.7163221 110.870955,95.5049211 109.044359,95.5049211 C107.217598,95.5049211 105.736881,93.7162846 105.736881,91.5109108 C105.737088,89.3048995 107.217847,87.5169004 109.044359,87.5169004 Z M97.7573018,87.5169004 C99.5841461,87.5169004 101.064987,89.304862 101.064987,91.5109108 C101.064987,93.7163221 99.584229,95.5049211 97.7573018,95.5049211 C95.9313689,95.5049211 94.4508593,93.7162846 94.4508593,91.5109108 C94.4508593,89.3048995 95.9313689,87.5169004 97.7573018,87.5169004 L97.7573018,87.5169004 Z M89.7218713,101.99868 C87.8950269,101.99868 86.4145173,100.210681 86.4145173,98.0047448 C86.4145173,95.7987335 87.8950269,94.0106219 89.7218713,94.0106219 C91.5483842,94.0106219 93.0291424,95.798696 93.0291424,98.0047448 C93.0291424,100.210719 91.5483842,101.99868 89.7218713,101.99868 L89.7218713,101.99868 Z M112.204545,115.079198 C110.460027,116.036348 108.128824,115.718423 105.949182,114.446611 C104.591975,113.908786 102.338251,113.361474 100.010197,114.297061 C99.581163,114.562373 99.1463283,114.791723 98.7096706,114.980911 C96.8530776,115.787385 94.9726195,115.883423 93.5059898,115.079161 C90.5663497,113.465612 90.4033955,108.844676 93.142129,104.757216 C93.8609839,103.684342 94.7079897,102.754792 95.6204175,101.996468 L95.6286626,101.989793 L95.6309,101.98698 L95.6347946,101.984843 L95.6369906,101.982855 C97.003975,100.850581 98.5153519,100.101594 99.9563348,99.8311063 C101.769714,99.3276316 104.024556,99.1545692 106.475499,100.004244 C108.672005,100.646206 110.947274,102.33663 112.568654,104.757179 C115.307222,108.844714 115.144144,113.465649 112.204545,115.079198 L112.204545,115.079198 Z M116.444007,101.996655 C114.618033,101.996655 113.136653,100.208506 113.136653,98.0025323 C113.136653,95.7965585 114.617992,94.0086719 116.444007,94.0086719 C118.270603,94.0086719 119.751361,95.796596 119.751361,98.0026073 C119.751361,100.208619 118.270603,101.996655 116.444007,101.996655 L116.444007,101.996655 Z" id="形状" transform="translate(102.741715, 102.388322) rotate(10.000000) translate(-102.741715, -102.388322) "></path>
                <path d="M42.7681981,116.073872 C35.2901225,101.638409 28.4996473,111.492706 28.4996473,111.492706 C27.726091,112.789139 26.6869479,111.5791 26.6869479,111.5791 C24.1014548,108.121483 20.825836,108.207924 20.825836,108.207924 C13.8383862,108.121435 12.5982662,115.468877 12.5982662,115.468877 C3.73188715,115.728202 3.74479961,126.404556 3.74479961,126.404556 C2.97129103,132.931617 6.92502817,138.213948 6.92502817,138.213948 C11.6526074,155.254016 26.6869479,154.194196 26.6869479,154.194196 C44.3869246,152.897427 45.518742,138.76451 45.518742,138.76451 C49.386809,133.275611 49.6444864,127.311283 49.6444864,127.311283 C49.0429374,117.111267 42.7681028,116.073968 42.7681028,116.073968 L42.7681981,116.073872 Z M33.8925278,112.204795 C35.9931129,112.204795 37.6960802,114.489413 37.6960802,117.308253 C37.6960802,120.126278 35.9931129,122.41171 33.8925278,122.41171 C31.791752,122.41171 30.0889277,120.12623 30.0889277,117.308253 C30.0891659,114.489461 31.7920379,112.204795 33.8925278,112.204795 Z M20.9124114,112.204795 C23.0132825,112.204795 24.7162497,114.489413 24.7162497,117.308253 C24.7162497,120.126278 23.0133778,122.41171 20.9124114,122.41171 C18.8125886,122.41171 17.1100026,120.12623 17.1100026,117.308253 C17.1100026,114.489461 18.8125886,112.204795 20.9124114,112.204795 L20.9124114,112.204795 Z M11.6716664,130.709291 C9.57079536,130.709291 7.8682093,128.424626 7.8682093,125.60593 C7.8682093,122.787137 9.57079536,120.502328 11.6716664,120.502328 C13.7721563,120.502328 15.4750282,122.787089 15.4750282,125.60593 C15.4750282,128.424674 13.7721563,130.709291 11.6716664,130.709291 L11.6716664,130.709291 Z M37.5267411,147.423287 C35.5205456,148.646311 32.8396622,148.240074 30.3330732,146.614981 C28.7722859,145.92776 26.1805033,145.228417 23.5032411,146.423889 C23.0098519,146.7629 22.5097919,147.055958 22.0076355,147.297697 C19.8725536,148.328192 17.7100268,148.450907 16.0234026,147.423239 C12.6428166,145.361482 12.4554192,139.456953 15.6049628,134.234087 C16.4316459,132.863192 17.4057026,131.675435 18.4549946,130.706464 L18.4644764,130.697935 L18.4670494,130.694341 L18.4715282,130.69161 L18.4740536,130.689071 C20.0460856,129.242276 21.784169,128.285237 23.4412994,127.939614 C25.5266851,127.296285 28.1197542,127.07515 30.9383387,128.160845 C33.4643202,128.98113 36.0808795,131.141116 37.9454669,134.23404 C41.0948199,139.457001 40.9072796,145.361529 37.5267411,147.423287 L37.5267411,147.423287 Z M42.4021228,130.706704 C40.3022523,130.706704 38.5986657,128.421847 38.5986657,125.603103 C38.5986657,122.784358 40.3022047,120.499837 42.4021228,120.499837 C44.5027079,120.499837 46.2055799,122.784406 46.2055799,125.603198 C46.2055799,128.421991 44.5027079,130.706704 42.4021228,130.706704 L42.4021228,130.706704 Z" id="形状" transform="translate(26.644486, 131.207167) rotate(10.000000) translate(-26.644486, -131.207167) "></path>
            </g>
        </g>
    </g>
</svg>