<?xml version="1.0" encoding="UTF-8"?>
<svg width="24px" height="24px" viewBox="0 0 24 24" version="1.1" xmlns="http://www.w3.org/2000/svg" xmlns:xlink="http://www.w3.org/1999/xlink">
    <title>felicat备份 2</title>
    <g id="页面-1" stroke="none" stroke-width="1" fill="none" fill-rule="evenodd">
        <g id="首页" transform="translate(-24.000000, -719.000000)">
            <g id="felicat备份-2" transform="translate(24.000000, 719.000000)">
                <circle id="蒙版" fill="#B84949" cx="12" cy="12.0408163" r="11.4693878"></circle>
                <path d="M18.6938776,21.3309609 C18.6938776,17.6340344 15.6969265,14.6370833 12,14.6370833 C8.30307351,14.6370833 5.30612245,17.6340344 5.30612245,21.3309609 L9.02543991,23.2938727 L15.1823616,23.2938727 L18.6938776,21.3309609 Z" id="路径" fill="#FFFFFF"></path>
                <path d="M18.6938776,21.3309609 C18.6938776,17.6340344 15.6969265,14.6370833 12,14.6370833 C8.30307351,14.6370833 5.30612245,17.6340344 5.30612245,21.3309609" id="路径备份" stroke="#291818" stroke-width="0.768683274"></path>
                <circle id="蒙版" stroke="#291818" stroke-width="0.768683274" cx="12" cy="12" r="11.6156584"></circle>
                <path d="M7.8046875,16.359375 C7.8046875,17.2266346 9.68299289,17.9296875 12,17.9296875 C14.3170071,17.9296875 16.1953125,17.2266346 16.1953125,16.359375" id="路径" stroke="#B84949" stroke-width="1.19572954" stroke-linecap="round"></path>
                <g id="编组-10" transform="translate(5.929688, 5.203125)">
                    <path d="M11.3432376,0.294794005 C11.538879,0.490221916 11.6459975,0.764168249 11.6450355,1.06608797 L11.6413486,1.12280644 L11.343545,3.48663724 C11.8216422,4.30391694 12.09375,5.24363967 12.09375,6.24337333 C12.09375,9.3967821 9.38647185,11.953125 6.046875,11.953125 C2.70727815,11.953125 0,9.3967821 0,6.24337333 C0,5.24363967 0.272107781,4.30391694 0.750205033,3.48663724 L0.448714451,1.06608797 C0.447752428,0.763975329 0.555064666,0.490414836 0.750512407,0.294794005 C1.02169857,0.0237414715 1.44223082,-0.0663521462 1.85443379,0.062325462 L4.03320343,0.857865799 C4.66309635,0.647873853 5.34085537,0.533621652 6.046875,0.533621652 C6.75251889,0.533621652 7.42993224,0.647752276 8.05954085,0.857530609 L10.2185898,0.0692705802 C10.6982019,-0.0819786624 11.0714703,0.0239343914 11.3432376,0.294794005 Z" id="形状结合" stroke="#291818" stroke-width="0.768683274" fill="#FFFFFF" fill-rule="nonzero" stroke-linejoin="round"></path>
                    <path d="M4.64674874,5.89154691 C4.48481739,5.53349157 3.97717011,5.27218192 3.37599382,5.27218192 C2.7743291,5.27218192 2.26634543,5.53391634 2.10484489,5.8924198" id="路径" stroke="#291818" stroke-width="0.640569395" stroke-linecap="round" stroke-linejoin="round"></path>
                    <path d="M9.98851111,5.89154691 C9.82657975,5.53349157 9.31893248,5.27218192 8.71775618,5.27218192 C8.11609146,5.27218192 7.6081078,5.53391634 7.44660726,5.8924198" id="路径备份-4" stroke="#291818" stroke-width="0.640569395" stroke-linecap="round" stroke-linejoin="round"></path>
                    <path d="" id="路径" stroke="#B84949" stroke-width="0.87544484" fill-rule="nonzero"></path>
                    <path d="" id="路径" stroke="#B84949" stroke-width="0.87544484" fill-rule="nonzero"></path>
                    <path d="" id="三角形" stroke="#291818" stroke-width="0.661921708" transform="translate(6.074957, 7.865583) scale(1, -1) translate(-6.074957, -7.865583) "></path>
                    <path d="M4.1879417,8.2391183 C4.1879417,8.75780984 4.60886127,9.17829241 5.12809187,9.17829241 C5.64732248,9.17829241 6.06824205,8.75780984 6.06824205,8.2391183" id="路径" stroke="#291818" stroke-width="0.512455516" stroke-linecap="round"></path>
                    <path d="M6.06824205,8.2391183 C6.06824205,8.75780984 6.48916162,9.17829241 7.00839223,9.17829241 C7.52762283,9.17829241 7.9485424,8.75780984 7.9485424,8.2391183" id="路径" stroke="#291818" stroke-width="0.512455516" stroke-linecap="round"></path>
                </g>
                <g id="编组" transform="translate(10.530612, 16.979592)" fill-rule="nonzero">
                    <path d="M1.48955247,2.43465379 C2.1580197,2.43465379 2.69991946,1.88963798 2.69991946,1.2173269 C2.69991946,0.545015816 2.1580197,0 1.48955247,0 C0.821085247,0 0.279185489,0.545015816 0.279185489,1.2173269 C0.279185489,1.88963798 0.821085247,2.43465379 1.48955247,2.43465379 Z" id="路径" stroke="#FFDC69" stroke-width="0.5" fill="#FFDC69"></path>
                    <path d="M1.66767502,2.1724187 L1.66767502,2.69280598 C1.61226219,2.69831666 1.5559985,2.68077945 1.49908602,2.68077945 C1.46115146,2.68077945 1.40495512,2.68478829 1.33049702,2.69280598 L1.33049702,2.1724187 C1.26580972,2.12229376 1.22414906,2.04418179 1.22414906,1.95643407 C1.22414906,1.80541406 1.34722722,1.68301571 1.49908602,1.68301571 C1.65094482,1.68301571 1.77402297,1.80541405 1.77402297,1.95643407 C1.77402297,2.0441818 1.73235168,2.12228319 1.66767502,2.1724187 Z" id="路径" fill="#FFFFFF"></path>
                    <path d="M2.87252026,1.41827098 L0.147887908,1.41827098 C0.0662083289,1.41827098 0,1.34527842 0,1.25522931 L0,1.1731494 C0,1.08310028 0.0662083332,1.01010772 0.147887908,1.01010772 L2.87252026,1.01010772 C2.95419983,1.01010772 3.02040816,1.08310976 3.02040816,1.1731494 L3.02040816,1.25522931 C3.02040816,1.34527842 2.95419983,1.41827098 2.87252026,1.41827098 Z" id="路径" fill="#FEB102"></path>
                </g>
                <g id="编组-9" transform="translate(17.273437, 14.671875) rotate(18.000000) translate(-17.273437, -14.671875) translate(14.906250, 11.273437)" fill="#FFFFFF" stroke="#291818" stroke-width="0.768683274">
                    <rect id="矩形" fill-rule="nonzero" stroke-linejoin="round" x="0.917018581" y="0.341981132" width="2.88811639" height="6.45489387" rx="1.4440582"></rect>
                    <path d="M2.3671875,0.384341637 C2.93354835,0.384341637 3.44870358,0.539769153 3.82068639,0.800069095 C4.13389568,1.01924148 4.35003336,1.31524889 4.35003336,1.65647111 C3.55460562,2.59043255 3.46735472,2.777409 3.17384666,2.77532927 C2.06219588,2.64491816 1.91480153,2.74773846 1.7047911,2.77304415 C0.599485167,2.02512293 0.384341637,1.86036758 0.384341637,1.65647111 C0.384341637,1.31524889 0.600479322,1.01924148 0.91368861,0.800069095 C1.28567142,0.539769153 1.80082665,0.384341637 2.3671875,0.384341637 Z" id="椭圆形"></path>
                </g>
                <path d="M7.15812354,12.8782449 C6.78145121,12.9449116 6.42770971,12.9782449 6.09689905,12.9782449" id="路径-6" stroke="#291818" stroke-width="0.612244898" stroke-linecap="round" stroke-linejoin="round"></path>
                <path d="M7.8648344,13.7397301 C7.39344022,13.8063968 6.91724975,13.8397301 6.43626297,13.8397301" id="路径-6备份" stroke="#291818" stroke-width="0.612244898" stroke-linecap="round" stroke-linejoin="round"></path>
                <path d="M8.53606342,14.7442919 C8.05650464,14.7505999 7.58031416,14.7175191 7.10749199,14.6450495" id="路径-6备份-2" stroke="#291818" stroke-width="0.612244898" stroke-linecap="round" stroke-linejoin="round" transform="translate(7.821778, 14.695050) scale(-1, 1) translate(-7.821778, -14.695050) "></path>
            </g>
        </g>
    </g>
</svg>